<svg width="151" height="175" viewBox="0 0 151 175" fill="none" xmlns="http://www.w3.org/2000/svg">
<g opacity="0.15">
<path d="M130.873 81.4712C129.454 71.6484 124.304 63.3106 116.951 55.8076C115.271 54.0713 113.547 53.0768 111.866 51.3404C103.072 44.472 92.0428 41.1096 80.9124 41.9036C78.5404 42.1423 76.2214 41.0971 74.8292 39.1619C74.0724 38.1503 74.2822 37.1217 75.0509 35.4587C75.2608 34.4302 75.5318 33.6296 74.8355 32.844C74.1393 32.0584 73.2491 33.2683 72.4514 32.9966L73.1276 32.8153" stroke="black" stroke-width="0.600071" stroke-linecap="round" stroke-linejoin="round"/>
<path d="M81.8538 154.135C84.6946 153.859 87.2924 152.677 89.7857 152.009" stroke="black" stroke-width="0.600071" stroke-linecap="round"/>
<path d="M73.9493 34.0528L74.1763 33.9919C72.9422 32.4996 72.197 30.6639 72.0417 28.7337C73.0477 24.3335 74.5081 19.8127 72.4911 15.0085C72.3696 14.5554 73.2757 14.3125 73.381 13.7976L73.1378 12.8905L70.6407 13.5601C70.4598 13.8706 70.3861 14.232 70.4308 14.5886C69.8563 14.257 69.7346 13.803 70.0055 13.0024C69.8659 12.6713 69.6213 12.3952 69.3093 12.2168C67.7231 12.6421 65.2576 11.6029 64.3238 13.5535C63.6609 14.7035 64.5392 16.1682 64.3899 17.4228C64.0825 18.477 63.9663 19.5778 64.0468 20.6729C63.4607 23.0169 62.1942 25.5423 61.6081 27.8863C61.022 30.2303 62.9451 32.8728 61.9059 35.3383C61.3036 36.7143 58.8104 37.3828 58.495 38.9253C58.3457 40.1799 60.191 41.6286 60.0418 42.8832C58.9378 46.2644 56.7201 49.1714 53.7507 51.1295C46.1558 56.3239 37.6605 59.0872 31.1314 66.4261C28.1735 69.8916 26.2033 74.3069 23.7125 78.6185C22.0577 82.0262 20.8194 85.6209 20.0246 89.3249C19.0837 97.5946 20.879 106.102 22.9448 113.807" stroke="black" stroke-width="0.600071" stroke-linecap="round" stroke-linejoin="round"/>
<path d="M128.2 71.4979L128.139 71.2709C128.974 73.4762 130.2 75.3343 131.034 77.5358C132.111 80.6483 133.145 84.5017 134.444 87.5536C137.504 94.1254 138.54 101.459 137.42 108.621C136.031 117.015 133.837 125.139 129.237 132.443" stroke="black" stroke-width="0.600071" stroke-linecap="round" stroke-linejoin="round"/>
<path d="M22.3092 113.251L22.7623 113.13C23.0979 113.926 23.3228 114.765 23.4307 115.623C23.5522 116.076 23.839 116.238 23.9616 116.695C24.31 117.087 24.2048 117.602 24.2654 117.828C24.9785 119.581 26.2493 120.698 26.9624 122.45C27.5541 123.749 28.764 124.64 29.5818 125.878C30.3437 127.325 31.2042 128.718 32.1574 130.047C32.9058 131.105 33.7399 132.1 34.6511 133.022C35.0594 133.637 35.692 134.201 36.1042 134.819C36.5165 135.438 37.3141 135.71 37.7235 136.329C38.4804 137.34 39.6306 138.004 40.3875 139.016C41.4284 140.195 42.6421 141.084 43.6869 142.262C44.7958 143.282 46.0133 144.177 47.3176 144.932C47.8921 145.264 48.632 145.304 49.2076 145.64C50.0052 145.912 50.539 146.983 51.3407 147.255C52.8218 148.043 54.3767 148.684 55.9831 149.168L60.9739 151.474C61.5485 151.805 61.8933 152.2 62.4109 152.303C63.2085 152.575 63.9523 152.615 64.7539 152.889C65.464 153.203 66.1384 153.592 66.7653 154.05C67.5771 154.265 68.3381 154.639 69.0038 155.15C70.4407 155.98 71.8617 155.842 73.1772 156.218C73.7464 156.408 74.3452 156.493 74.9447 156.469C75.3977 156.348 75.4994 155.835 75.8965 155.489C76.2936 155.144 77.0296 155.185 77.4826 155.064C79.2574 154.426 81.1049 154.013 82.9821 153.833C84.4031 153.695 87.3333 151.941 88.5421 152.828" stroke="black" stroke-width="0.600071" stroke-linecap="round" stroke-linejoin="round"/>
<path d="M131.763 80.2603L130.857 80.5033" stroke="black" stroke-width="0.600071" stroke-linecap="round"/>
<path d="M131.763 80.2603C130.986 79.9414 130.105 79.9984 129.375 80.4148C129.95 80.7464 130.132 81.4265 130.538 82.0467C137.26 95.3068 133.031 111.26 126.639 123.664" stroke="black" stroke-width="0.600071" stroke-linecap="round" stroke-linejoin="round"/>
<path d="M95.3298 150.036L95.4512 150.49C94.2755 150.926 93.0614 151.252 91.8249 151.462L90.2387 151.887C89.5192 151.778 88.7853 151.809 88.078 151.981" stroke="black" stroke-width="0.600071" stroke-linecap="round" stroke-linejoin="round"/>
<path d="M95.9043 150.368C96.2965 150.02 96.8713 150.352 97.2187 150.741C98.028 149.341 98.9784 148.028 100.055 146.822C100.747 146.098 101.593 145.538 102.531 145.186L103.376 144.716C103.802 144.329 104.3 144.031 104.841 143.838C107.937 141.793 111.546 139.853 114.233 137.189C115.318 135.997 116.477 134.874 117.705 133.829C118.988 132.716 120.115 131.434 121.056 130.02C122.173 128.748 123.229 127.251 124.346 125.98C124.677 125.405 125.298 125 125.567 124.194C125.754 123.254 126.191 122.382 126.831 121.669" stroke="black" stroke-width="0.600071" stroke-linecap="round" stroke-linejoin="round"/>
<path d="M97.7346 150.85C98.5342 149.243 99.9859 148.057 101.72 147.594C102.626 147.351 103.185 146.716 104.092 146.473L106.585 145.804C107.443 145.696 108.281 145.471 109.078 145.136C109.531 145.014 109.41 144.561 109.633 144.501L110.993 144.137C112.761 143.785 114.503 143.317 116.21 142.738C116.946 142.323 117.626 141.814 118.233 141.223C118.896 140.825 119.5 140.336 120.029 139.771C121.268 138.953 122.444 137.908 123.683 137.091C124.705 136.178 125.658 135.192 126.535 134.139C127.365 132.702 129.056 131.763 129.084 130.054" stroke="black" stroke-width="0.600071" stroke-linecap="round" stroke-linejoin="round"/>
<path d="M131.017 130.022L131.47 129.9C131.834 131.26 130.717 132.531 129.766 133.515C129.095 134.56 128.288 135.511 127.367 136.345C126.415 137.325 125.344 137.86 124.393 138.843C123.58 139.834 122.538 140.613 121.358 141.114C120.225 141.418 119.441 142.114 118.08 142.479L116.495 142.904C115.797 143.109 115.146 143.449 114.578 143.904L112.99 144.329C112.292 144.535 111.641 144.874 111.073 145.329C109.897 145.766 108.683 146.091 107.446 146.301" stroke="black" stroke-width="0.600071" stroke-linecap="round" stroke-linejoin="round"/>
<path d="M131.563 132.061C132.863 131.469 133.267 128.446 133.416 127.192C133.836 125.136 134.771 123.185 135.251 121.355C135.749 119.348 136.095 117.306 136.286 115.247C136.209 114.053 136.706 113.191 136.856 111.936C136.951 110.743 136.795 109.543 136.398 108.415" stroke="black" stroke-width="0.600071" stroke-linecap="round" stroke-linejoin="round"/>
<path d="M130.507 133.56C129.733 131.58 131.348 129.447 131.89 127.844C132.072 127.425 132.197 126.983 132.262 126.53C132.435 125.94 132.695 125.379 133.032 124.865L133.847 122.458C134.612 120.564 135.226 118.612 135.682 116.621C136.102 114.565 136.296 112.569 136.717 110.513C136.763 109.776 137.486 108.849 137.53 108.108C137.636 107.594 137.287 107.201 137.332 106.461C137.211 106.008 137.542 105.432 137.644 104.92C137.438 102.651 137 100.409 136.335 98.2293C136.032 97.0962 136.242 96.0677 135.877 94.7085L133.203 84.7336" stroke="black" stroke-width="0.600071" stroke-linecap="round" stroke-linejoin="round"/>
<path d="M92.6551 150.025C92.2904 148.665 92.1967 146.504 91.4396 145.491C91.1162 144.935 90.4312 144.703 89.8363 144.949C88.7032 145.253 88.8845 145.929 88.9014 146.9C88.1644 146.854 88.3706 145.827 88.2492 145.374C88.0195 144.686 87.682 144.038 87.2491 143.456C86.9006 143.063 86.3297 142.73 86.2082 142.277C85.713 141.55 85.3346 140.749 85.0867 139.905C83.9536 140.209 85.079 142.58 84.0635 143.337C83.6551 142.722 83.6988 141.977 83.2894 141.358C83.168 140.905 82.4717 140.119 82.2486 140.179C80.994 140.03 80.9215 142.479 80.6508 143.28C80.6051 144.017 80.3523 145.789 79.2192 146.093C78.7661 146.215 78.0699 145.429 77.5116 146.065C77.3454 146.353 77.7548 146.972 77.5883 147.259C77.6492 147.486 77.4828 147.773 77.6045 148.227C77.8028 149.874 78.9084 151.279 78.367 152.882C78.0554 154.424 76.4492 153.882 75.6305 152.644C74.8118 151.405 73.6019 150.515 72.7842 149.276C72.043 148.057 71.5196 146.717 71.2374 145.318C71.8717 145.873 72.1157 146.783 72.7511 147.342C73.8234 146.811 72.698 144.44 72.455 143.534C72.2737 142.858 72.6043 142.279 72.4828 141.826C72.5285 141.089 72.1181 140.466 72.1628 139.725C72.086 138.531 71.5552 137.459 72.2181 136.309C72.4305 135.812 72.925 135.496 73.4652 135.511C74.0054 135.526 74.4814 135.87 74.6656 136.378C75.0578 136.029 75.3288 135.229 75.4949 134.941C75.9279 133.852 75.9279 133.852 76.8379 133.608C78.237 133.326 79.5763 132.803 80.7959 132.062C82.2606 131.183 83.0012 131.227 84.7697 131.482C85.3452 131.504 85.902 131.693 86.3731 132.024C87.4605 132.457 87.0074 132.579 87.5354 133.656C88.1108 134.839 88.817 135.953 89.6408 136.979C90.4585 138.217 90.8232 139.577 91.5801 140.589C92.4018 141.501 93.0212 142.577 93.3976 143.745C93.6408 144.653 94.3699 147.372 93.1759 147.449" stroke="black" stroke-width="0.600071" stroke-linecap="round" stroke-linejoin="round"/>
<path d="M93.784 146.082C94.2542 146.929 93.6956 147.564 93.6548 148.304C93.7225 149.01 93.9074 149.699 94.2018 150.344C93.6101 149.045 94.9543 147.713 95.6172 146.563C96.1794 145.01 96.6467 143.425 97.0167 141.815C97.5582 140.212 97.526 138.277 98.0069 136.448C98.4218 134.808 98.6227 133.121 98.6046 131.429C98.5736 130.51 98.6534 129.592 98.8422 128.692C98.932 128.295 98.9053 127.881 98.7654 127.498C98.8709 126.985 99.0371 126.701 99.1378 126.184C99.5578 124.128 99.2377 122.027 99.3711 119.805C99.2317 118.08 98.8583 116.382 98.2611 114.758L96.6188 108.633C96.3233 106.927 95.7971 105.27 95.0548 103.707C94.5846 102.861 94.1765 102.242 93.7102 101.395C93.2438 100.548 92.3788 100.052 91.9086 99.2055C91.0599 97.6081 90.0823 96.0826 88.9854 94.6443C88.2892 93.8587 87.654 93.301 86.9568 92.5157C86.3459 91.6642 85.8527 90.7342 85.4907 89.7507C84.5515 88.059 83.2797 86.9421 82.3405 85.2504C81.8703 84.4041 81.7488 83.9511 81.3405 83.3316C80.6442 82.546 80.239 81.9268 79.5389 81.1422C78.2981 79.905 77.1328 78.5944 76.0492 77.2175C75.2452 75.9364 74.3495 74.7151 73.3692 73.5633C71.9161 71.7661 70.0754 73.9608 69.76 75.5033C69.5574 76.428 69.4025 77.3626 69.2962 78.3033C69.173 79.1697 68.9975 80.028 68.7707 80.8733C67.9744 84.2449 66.8906 87.4513 66.3204 90.7622C66.3514 91.6805 66.2716 92.5992 66.0828 93.4984C66.0178 93.9512 65.8926 94.3933 65.7104 94.8129C65.6435 95.3038 65.6139 95.7991 65.622 96.2945C65.4551 97.0473 65.3352 97.8098 65.2629 98.5776C65.2791 99.5455 65.012 100.345 65.0253 101.314C65.2236 102.961 65.3622 104.382 65.5646 106.029C65.5808 106.996 65.8237 107.903 65.78 108.643C65.7363 109.384 65.2292 110.25 65.1844 110.987C64.8729 112.528 64.9021 114.464 64.5867 116.006C64.4316 117.957 64.3889 119.915 64.459 121.871C64.4133 122.608 64.5966 123.292 64.5529 124.033C64.488 124.486 64.3627 124.928 64.1805 125.347C64.075 125.861 64.4237 126.254 64.4843 126.48C64.6058 126.933 64.2126 127.278 64.3351 127.735L64.6389 128.868C64.5625 129.912 64.6007 130.96 64.7527 131.996C65.0845 133.686 65.5312 135.352 66.0896 136.982L67.548 142.422C68.0838 144.095 68.838 145.69 69.7911 147.165C70.6257 149.371 73.3175 150.35 75.1019 151.572C75.7415 152.107 76.4362 152.572 77.1743 152.96C78.0318 153.455 78.4887 153.332 79.6218 153.028" stroke="black" stroke-width="0.600071" stroke-linecap="round" stroke-linejoin="round"/>
<path d="M92.5675 141.545L92.689 141.998C93.3043 141.59 93.4852 138.627 93.7559 137.825C93.9447 136.926 94.0245 136.007 93.9935 135.089C94.2583 134.027 94.3738 132.933 94.3367 131.839L94.0329 130.706C94.1227 130.309 94.096 129.894 93.9561 129.512L93.6523 128.379C93.5308 127.926 93.924 127.581 93.8015 127.124C93.4293 125.282 92.9422 123.466 92.3431 121.685L91.0061 116.698C90.52 114.885 89.1886 113.542 88.3091 112.076C87.8765 111.266 87.3478 110.51 86.7345 109.826C86.0382 109.04 85.1761 108.544 84.4798 107.758C83.3175 106.126 82.3744 104.435 81.2082 102.805C80.664 102.094 80.2122 101.317 79.8635 100.493C79.3933 99.6464 79.6653 98.8455 79.1951 97.9993C78.7867 97.384 78.5428 96.474 77.9718 96.1404C76.8225 95.4763 76.1587 96.6266 75.7218 97.716C75.4367 98.6546 75.2057 99.6088 75.0302 100.574C75.0463 101.542 74.5493 102.403 74.5655 103.371C74.4363 105.592 74.587 107.981 74.2279 110.264C73.7678 114.025 73.566 117.813 73.624 121.602C73.6109 122.376 73.49 123.144 73.2649 123.885C73.055 124.913 73.2371 125.593 73.0272 126.621C73.1487 127.074 72.6956 127.196 72.7555 127.419C72.8769 127.872 73.2257 128.265 73.1201 128.779C73.0024 129.513 72.9591 130.257 72.9909 131C72.9474 131.878 73.0198 132.757 73.2064 133.615L73.9963 136.561" stroke="black" stroke-width="0.600071" stroke-linecap="round" stroke-linejoin="round"/>
<path d="M94.2413 149.599C95.4352 149.523 96.7623 147.223 97.3206 146.587C97.9853 145.981 98.5324 145.258 98.9346 144.454C99.3778 143.621 99.8977 142.831 100.488 142.094C101.236 141.239 101.713 140.181 101.858 139.054C102.014 138.331 102.23 137.623 102.505 136.937C103 136.08 103.213 135.047 103.545 134.472C104.039 133.614 104.827 132.913 105.037 131.885C105.541 130.206 105.892 128.485 106.088 126.744C106.233 124.64 106.236 122.529 106.094 120.426C106.065 118.618 106.148 116.811 106.343 115.014C106.327 114.046 106.884 113.411 106.868 112.444C106.852 111.335 106.718 110.23 106.471 109.149C105.316 104.843 104.388 100.475 103.007 96.2298C102.521 94.4167 101.128 92.8464 100.415 91.0941C99.4317 89.3403 98.2588 87.6995 96.9177 86.2013C95.6831 84.6747 94.3265 83.2509 92.8614 81.9439C91.3636 80.8876 89.6997 80.1191 88.2019 79.0628C87.262 78.4576 86.2374 77.9953 85.1616 77.6911C84.0742 77.2578 83.3154 76.2426 82.4539 75.7446C80.5237 74.4799 78.7422 73.0017 77.1431 71.338C76.1022 70.1591 75.1145 69.2094 74.1316 68.2583C73.006 67.0498 71.8082 65.9108 70.5446 64.8474C69.9701 64.5158 69.7877 63.8358 69.0468 63.7911C68.1892 63.8994 67.3504 64.1243 66.5536 64.4596C65.1911 65.2425 64.069 66.3835 63.3088 67.7587C62.5395 69.32 61.9193 70.9503 61.4562 72.6281C60.8092 74.745 59.9353 76.9229 59.0622 79.1005C58.9128 80.1158 58.6031 81.1009 58.1445 82.019C57.6204 83.001 57.1625 84.0169 56.7741 85.06L55.9609 87.4648C55.5599 88.7346 55.2584 90.0337 55.0592 91.3503C54.3809 93.0124 53.9504 94.7651 53.7814 96.5523C53.5914 98.5467 52.6536 100.498 52.7466 102.66C52.7628 103.628 52.7188 104.368 52.7389 105.335C52.585 106.065 52.5414 106.814 52.6097 107.556C52.7312 108.009 53.0799 108.403 52.9744 108.916C53.0958 109.369 52.9287 109.654 52.8251 110.171C52.9019 111.365 53.2057 112.498 53.2835 113.692C53.2997 114.66 52.8027 115.521 52.8188 116.489C52.835 117.457 53.0171 118.136 53.0343 119.104C53.0514 120.071 53.2325 120.751 53.2497 121.718C53.1733 122.762 53.2115 123.811 53.3634 124.846L53.6672 125.979C53.7887 126.432 53.6215 126.716 53.744 127.173C53.852 128.031 54.0769 128.87 54.4125 129.666C54.8673 131.661 55.5494 133.598 56.4455 135.437C57.465 137.339 58.6778 139.13 60.0646 140.783C61.6839 142.293 63.137 144.09 64.8168 145.825C66.4394 147.581 68.1788 149.225 70.0231 150.746C70.9425 151.471 71.5815 152.028 72.5048 152.753C73.1391 153.307 74.6218 153.4 74.865 154.307" stroke="black" stroke-width="0.600071" stroke-linecap="round" stroke-linejoin="round"/>
<path d="M75.5359 154.129C75.0828 154.251 74.7382 153.857 74.2215 153.757C73.4238 153.485 72.9669 153.608 72.3921 153.275C71.0842 152.794 69.8022 152.246 68.5513 151.632C65.3895 149.808 61.5041 148.906 58.7355 146.732L52.3352 141.889C51.4098 141.351 50.5728 140.674 49.8536 139.882L46.9029 137.029C45.5839 135.671 44.3788 134.206 43.2997 132.65C41.8812 130.886 40.8391 128.85 40.238 126.668L38.7788 121.226C38.365 119.361 38.1795 117.453 38.2264 115.543C38.27 114.666 38.1976 113.787 38.011 112.929C37.9737 111.69 38.0479 110.451 38.2327 109.225C38.1383 108.088 38.1568 106.943 38.288 105.809C38.3764 104.328 38.7527 103.012 38.841 101.53C38.9403 99.2131 39.3022 96.9145 39.9197 94.6786C40.1296 93.6501 40.6276 92.7887 40.8374 91.7601C41.2704 90.6717 41.6506 89.3553 42.0867 88.2671C42.2529 87.9792 42.6414 87.6327 42.8115 87.3479C43.1431 86.7734 43.2445 86.2596 43.58 85.684C44.0426 84.919 44.5835 84.2042 45.1939 83.5511C46.7033 81.9318 48.2733 80.5386 49.7211 78.6935C50.3149 77.8082 50.9866 76.9777 51.7282 76.2119C52.3802 75.5224 52.9059 74.7236 53.2813 73.852C53.7762 72.9945 54.7906 72.2327 55.2275 71.1433C55.8904 69.9933 56.7806 68.7834 57.2783 67.921C58.1076 66.484 58.423 64.9416 59.2523 63.5046C59.5992 62.658 59.8516 61.7757 60.0048 60.8737C60.3934 59.8309 60.8513 58.8153 61.3756 57.8337C61.9779 56.4577 62.6249 54.3407 63.9241 53.749C65.6158 52.8098 67.3843 53.0646 69.2135 53.5454C70.0111 53.8172 70.9809 53.7963 71.6174 54.3588C72.4044 54.9537 73.0895 55.6726 73.646 56.4874C74.9774 57.8306 75.9175 59.5221 77.2492 60.8663C78.7184 62.3455 80.3012 63.7076 81.983 64.9399C83.0568 66.0055 84.3537 66.8195 85.7801 67.3233C86.8675 67.7565 87.8971 67.9702 88.9856 68.4074C92.4771 69.8481 95.7626 71.7445 98.7564 74.0474C99.5618 74.5386 100.406 74.9622 101.282 75.3138C102.139 75.8087 102.78 76.3701 103.642 76.8678C105.01 77.8083 106.221 78.9595 107.229 80.2788C108.483 81.8446 109.651 83.478 110.727 85.1716C111.197 86.0178 111.047 87.2726 111.517 88.1179C112.047 89.1901 112.517 90.0366 113.044 91.1099C113.817 92.7206 114.719 94.2663 115.741 95.7317C116.211 96.5779 115.939 97.3788 115.956 98.3464C116.105 99.3556 116.37 100.344 116.746 101.293C117.037 102.714 117.1 104.173 116.934 105.615C116.849 107.687 116.501 109.739 115.899 111.723C115.301 113.448 114.799 115.205 114.395 116.986C114.081 119.256 113.448 121.47 112.515 123.564C111.747 125.228 111.553 127.223 110.784 128.887C110.396 129.93 109.938 130.945 109.413 131.927C108.751 133.077 108.374 134.392 107.71 135.542C106.985 136.546 106.183 137.492 105.311 138.372C104.421 139.583 104.045 140.898 103.155 142.108C102.803 142.686 102.371 143.211 101.872 143.667C101.147 144.586 100.755 144.938 101.059 146.071" stroke="black" stroke-width="0.600071" stroke-linecap="round" stroke-linejoin="round"/>
<path d="M101.625 145.434C103.426 143.921 105.093 142.255 106.607 140.455C108.508 138.487 110.985 136.852 112.539 134.491C113.201 133.341 114.152 132.359 114.816 131.208C115.48 130.058 115.402 128.864 116.126 127.941C117.05 127.041 117.838 126.012 118.465 124.885C119.012 123.984 119.49 123.044 119.897 122.072C120.342 121.105 120.725 120.11 121.041 119.093C121.5 118.175 121.81 117.189 121.959 116.174C122.169 115.146 122.21 114.407 122.424 113.377C122.681 112.138 122.831 110.878 122.872 109.613C123.458 107.269 124.045 104.926 124.404 102.643C124.614 101.614 125.339 100.692 125.261 99.4974C125.306 98.7603 124.896 98.1373 124.941 97.3963C124.889 96.4521 124.72 95.5179 124.438 94.6152L122.494 87.3615C122.344 86.3523 122.079 85.3637 121.704 84.4152C121.582 83.9973 121.313 83.6377 120.947 83.4036C120.582 82.7907 120.32 82.122 120.173 81.4242C119.173 79.5055 117.946 77.6486 116.946 75.7299C115.662 73.645 113.419 72.545 111.8 71.0356C110.293 69.41 108.67 67.8966 106.942 66.5075C104.87 65.1196 103.024 63.6711 100.951 62.2832L97.7897 60.4584C96.714 60.1543 95.6894 59.692 94.7495 59.0867C93.8301 58.3609 93.0247 58.0913 92.3893 57.5327C91.4549 56.8384 90.4744 56.2084 89.4545 55.647C88.5678 55.1785 87.6479 54.7755 86.7022 54.4415C86.1883 54.3359 86.1276 54.1099 85.8447 53.9466L84.3032 53.635C82.6475 53.1069 81.0219 52.4885 79.4339 51.7825C78.5764 51.2876 77.7699 51.0141 76.9085 50.5161C76.334 50.1845 75.5322 49.9128 74.9577 49.5812C74.3831 49.2496 73.7477 48.691 73.1723 48.3597C72.4915 48.0945 71.8807 47.6766 71.3869 47.1382C70.1161 46.021 68.9499 44.3902 67.1814 44.1354C65.352 43.6536 63.4941 44.8807 62.439 46.3792L59.9464 50.684C59.6148 51.2585 59.7365 51.7125 59.3441 52.06C59.0223 52.5258 58.6475 52.9526 58.2272 53.3318C57.5023 54.2509 56.4917 55.0116 55.767 55.9349C54.424 57.2673 52.7929 58.4325 51.45 59.7649C50.8952 60.3992 50.0451 60.8663 49.4875 61.5056C48.8122 62.028 48.2437 62.6753 47.813 63.4125C46.696 64.6842 45.0053 65.6231 43.8881 66.8939C42.3787 68.5132 41.4451 70.4647 39.9963 72.31C39.2472 73.2761 38.6333 74.3398 38.1716 75.4718C37.7386 76.5601 37.2367 77.4226 36.8008 78.5118C35.8546 80.9401 35.0604 83.4251 34.423 85.9521C33.2346 89.6722 32.7849 93.4324 31.8806 97.3237C31.6296 99.0912 31.3104 100.635 31.0568 102.404C30.8672 102.973 30.7822 103.572 30.8059 104.171C30.7602 104.908 30.9436 105.592 30.9605 106.559C30.8955 107.437 30.9682 108.319 31.1759 109.174L31.7229 111.214C31.8214 112.786 32.1546 114.335 32.7114 115.808L33.8051 119.888C34.0106 120.586 34.3503 121.238 34.8052 121.806L35.3527 123.849C35.812 125.225 36.487 126.52 37.3526 127.685C38.1939 129.115 39.1299 130.488 40.1542 131.793C41.0751 133.203 42.0859 134.552 43.1806 135.832C44.3374 137.373 45.6184 138.817 47.0108 140.15C47.8275 140.765 48.5826 141.457 49.2654 142.218C49.6806 142.955 50.1894 143.635 50.7792 144.241C51.067 144.407 51.2931 144.347 51.5768 144.513L52.6177 145.692C53.255 146.496 54.016 147.194 54.8723 147.76C56.5095 148.577 58.0691 149.541 59.5319 150.641C60.4105 151.191 61.4152 151.507 62.4504 151.558C63.519 152.02 64.555 152.554 65.5512 153.156C67.0181 153.871 68.5531 154.436 70.133 154.844L72.5369 155.657C73.3346 155.929 73.9738 156.486 74.8799 156.243" stroke="black" stroke-width="0.600071" stroke-linecap="round" stroke-linejoin="round"/>
<path d="M68.0183 40.0156C68.5653 42.0558 69.4437 43.5205 71.7876 44.1066C74.1316 44.6927 76.1871 45.1139 78.5917 45.9261C80.7087 46.5731 82.4325 47.5688 84.6103 48.4428C86.5003 49.1506 88.5567 49.5715 90.5073 50.5054C91.0212 50.611 91.0818 50.837 91.6566 51.1695C92.2884 51.2304 92.9062 51.3931 93.486 51.6513C94.5289 52.0402 95.5446 52.4985 96.5262 53.0231C98.6398 54.0481 100.823 54.924 103.059 55.6443C107.187 57.4531 109.641 61.1679 112.423 64.3091C112.771 64.7013 112.893 65.1553 113.18 65.3208C113.588 65.9361 113.814 65.8755 114.39 66.211C115.027 66.9093 115.629 67.6401 116.191 68.4004C116.59 69.0641 117.079 69.6689 117.644 70.1976C118.244 70.9763 118.924 71.6898 119.673 72.3262C120.551 73.7909 121.369 75.0296 122.248 76.495C122.719 77.3412 122.901 78.0203 123.37 78.8668C123.646 79.1657 123.831 79.538 123.901 79.939L124.326 81.5252C126.083 84.4556 126.437 88.491 127.348 91.8904C128.442 95.9698 126.182 100.221 126.022 104.154C125.937 105.803 125.639 107.434 125.137 109.007C124.49 111.124 123.208 112.682 123.075 114.905C122.983 116.661 122.629 118.394 122.024 120.046L120.532 122.633C120.215 123.585 119.811 124.506 119.326 125.385C118.331 127.11 117.214 128.381 116.446 130.044C115.759 131.627 114.845 133.099 113.731 134.416C113.399 134.991 113.298 135.504 112.962 136.08C112.446 136.449 111.992 136.899 111.62 137.412C110.455 138.556 109.409 139.813 108.496 141.166" stroke="black" stroke-width="0.600071" stroke-linecap="round" stroke-linejoin="round"/>
<path d="M60.6772 43.4418C61.1474 44.288 60.5888 44.9234 60.3181 45.7249C60.0142 46.8005 59.5522 47.825 58.9473 48.7649C58.3592 49.7086 57.7085 50.6119 56.9998 51.4687C56.4451 52.1031 55.9435 52.9665 55.3858 53.6017C54.7263 54.2828 53.9918 54.8872 53.1964 55.4033C52.4858 55.9475 51.7089 56.3993 50.8845 56.7479C48.9667 57.7477 47.4573 59.367 45.5389 60.368C41.9516 62.207 38.6548 64.5643 35.7545 67.3641C33.0706 70.0365 29.8099 72.3686 27.249 75.4844C26.1927 76.9822 25.9998 78.9774 25.7452 80.7469C25.466 81.5954 25.1184 82.42 24.7061 83.2124C24.4114 84.2955 24.2205 85.4041 24.1359 86.5234C23.7943 88.3525 23.5598 90.2001 23.4336 92.0566C23.3879 92.7937 23.1827 93.8241 23.196 94.7928L23.4995 95.9249C23.621 96.378 23.2897 96.9535 23.188 97.4664C23.1445 98.3436 23.2169 99.2228 23.4034 100.081C23.575 100.789 23.6069 101.523 23.4974 102.243L24.1659 104.736C24.4697 105.869 24.199 106.671 24.5028 107.804C24.746 108.711 24.475 109.511 24.7182 110.418L25.3867 112.912C25.8013 114.757 26.4434 116.543 27.2981 118.23C28.2373 119.922 29.4036 121.552 30.3428 123.244C31.2819 124.936 32.3267 126.114 33.2659 127.805C34.0848 129.588 35.1064 131.271 36.3105 132.82C37.3514 133.998 38.626 135.115 39.6705 136.291C40.8315 137.65 42.0698 138.94 43.3792 140.156C44.7654 141.881 46.4716 143.322 48.4042 144.4C49.2617 144.895 50.355 145.335 51.505 145.998C52.0796 146.33 52.4244 146.724 53.0028 147.055C53.5812 147.385 54.2127 147.945 54.7882 148.276C55.6457 148.771 56.8444 148.696 57.5406 149.482L57.9489 150.097C58.2368 150.263 58.2974 150.489 58.8064 150.592C59.3859 150.838 59.7407 151.429 59.6847 152.057" stroke="black" stroke-width="0.600071" stroke-linecap="round" stroke-linejoin="round"/>
<path d="M67.7029 41.5582C69.0022 40.9665 66.4599 38.7334 66.1153 38.3402C65.3727 37.1208 64.8479 35.7815 64.5644 34.3823" stroke="black" stroke-width="0.600071" stroke-linecap="round"/>
<path d="M68.8082 42.962L68.7473 42.735C64.0336 43.274 65.111 36.4215 62.3427 34.2489C61.7274 34.6573 61.9228 36.3051 62.0442 36.7581L62.4695 38.3443L62.158 39.8857C62.0087 41.1403 61.9679 41.8802 61.7542 42.9098C61.2 43.891 61.1567 45.0801 61.6381 46.099C62.0302 45.7505 61.889 44.3316 62.2242 43.755C62.4702 42.7771 62.8755 41.8463 63.4239 41.0001C63.9786 40.3657 64.9939 39.6069 64.977 38.6402C64.7875 37.4794 64.4821 36.3406 64.0655 35.2408C63.0986 35.2567 63.2362 36.6777 62.9046 37.2522C62.0753 38.6892 61.7107 37.329 60.7439 37.3459C59.324 37.4875 60.5642 40.3172 60.8063 41.2204" stroke="black" stroke-width="0.600071" stroke-linecap="round" stroke-linejoin="round"/>
<path d="M74.4569 40.4762C75.0456 41.3235 75.8146 42.03 76.7087 42.5449C75.9503 42.342 75.2191 42.0485 74.5308 41.6709C73.5876 41.1034 72.7948 40.3173 72.2192 39.3791C71.686 38.5097 71.0617 37.6996 70.3568 36.9626C69.9484 36.3473 68.859 35.9063 68.5552 34.7732C68.3038 35.2284 68.2713 35.7728 68.4668 36.2548C68.2398 36.3156 68.3006 36.5426 68.1352 36.8293L68.4999 38.1894C68.8573 39.3998 69.5687 40.4755 70.5426 41.2782C71.5835 42.457 72.8419 42.6052 74.1574 42.9815C75.1849 43.1916 77.0153 43.6732 78.1484 43.3693L76.7883 43.734C77.2413 43.6125 78.2699 43.8224 78.949 43.6403C79.8959 43.6892 80.8342 43.8451 81.746 44.105C83.3494 44.6474 85.1785 45.1282 86.7808 45.6709C87.7344 46.038 88.7097 46.3457 89.7014 46.5922C90.2991 46.7955 90.9104 46.9565 91.5307 47.0739C93.3569 47.6359 95.1536 48.2894 96.914 49.032C97.2276 49.2038 97.5857 49.277 97.9416 49.2421C98.4555 49.3477 98.5161 49.5737 98.861 49.9679C99.7177 50.5902 100.667 51.0736 101.674 51.4005C102.553 51.5924 103.388 51.9447 104.139 52.4399C104.996 52.9348 105.637 53.4962 106.499 53.994C108.06 54.8431 109.543 55.8275 110.931 56.9359C112.473 57.9574 113.921 59.1139 115.258 60.3918C116.238 61.3436 117.452 62.2327 118.436 63.1835C119.767 64.5268 120.42 66.053 121.691 67.1702C122.24 67.6719 122.594 68.3515 122.691 69.0889C122.812 69.542 123.671 70.0408 123.853 70.7208C124.261 71.3362 124.505 72.2461 124.975 73.0926C125.545 73.7857 125.999 74.5664 126.319 75.4045C126.745 76.9907 127.907 78.6226 128.562 80.1481L130.689 88.0809C130.933 88.988 130.662 89.7885 130.905 90.6956C131.341 92.4255 131.41 94.2275 131.109 95.9859C130.993 96.8735 130.99 97.7722 131.101 98.6604C131.117 99.6284 130.742 100.944 130.758 101.911C130.838 102.8 130.835 103.696 130.75 104.585C130.468 105.746 130.127 106.892 129.727 108.018C129.118 110.06 128.352 112.052 127.437 113.976L127.559 114.429C127.61 114.677 127.467 114.924 127.227 115.004C127.011 115.597 126.85 116.21 126.746 116.833C126.597 118.088 125.872 119.011 125.497 120.326C125.131 121.279 124.825 122.254 124.579 123.245C124.474 123.759 124.534 123.982 124.43 124.499C124.327 125.017 123.767 125.649 123.662 126.163C122.92 128.336 121.71 130.319 120.118 131.973C119.166 132.953 118.791 134.272 117.84 135.256C116.981 136.277 116.003 137.191 114.927 137.98C113.975 138.96 113.478 139.827 112.527 140.811C111.743 141.507 111.593 142.761 110.459 143.065" stroke="black" stroke-width="0.600071" stroke-linecap="round" stroke-linejoin="round"/>
<path d="M74.153 39.3432C73.6222 38.2709 72.9298 37.4843 73.0146 36.0047C73.0603 35.2676 73.3462 35.4302 73.1639 34.7501L72.7383 33.163C73.1914 33.0415 73.3128 33.4945 73.2085 34.0092" stroke="black" stroke-width="0.600071" stroke-linecap="round" stroke-linejoin="round"/>
<path d="M73.1255 39.1329L72.6724 39.2544C72.1416 38.1821 70.6395 33.4833 71.7079 32.9535" stroke="black" stroke-width="0.600071" stroke-linecap="round"/>
<path d="M70.7494 36.612C70.6279 36.1589 70.9592 35.5834 70.8378 35.1304C70.7298 34.2727 70.5049 33.4338 70.1693 32.6371" stroke="black" stroke-width="0.600071" stroke-linecap="round" stroke-linejoin="round"/>
<path d="M70.2323 12.9406C70.8846 14.4659 70.1323 17.0978 70.1046 18.8055C70.0162 20.2871 70.1577 21.707 70.0652 23.1887C70.1249 24.6752 70.0356 26.164 69.7988 27.6328C69.5718 27.6936 69.3458 27.7543 69.4504 27.2406" stroke="black" stroke-width="0.600071" stroke-linecap="round" stroke-linejoin="round"/>
<path d="M71.0949 13.4393C71.38 14.1263 71.4133 14.8919 71.1888 15.601C71.0281 17.2268 70.9793 18.8618 71.0429 20.4943C70.9545 21.9759 71.3192 23.336 71.2305 24.8167C71.1848 25.5537 71.7167 26.6298 70.8714 27.0998" stroke="black" stroke-width="0.600071" stroke-linecap="round" stroke-linejoin="round"/>
<path d="M69.8732 15.2237C70.2815 15.839 69.7848 16.7053 69.744 17.4452C69.5341 18.4737 69.3849 19.7283 69.2347 20.9832C69.0844 22.238 69.2269 23.6577 69.1347 25.1403C69.089 25.8774 69.333 26.7874 68.7147 27.1965" stroke="black" stroke-width="0.600071" stroke-linecap="round" stroke-linejoin="round"/>
<path d="M68.933 13.5324C69.3583 15.1186 68.0762 16.6779 67.9876 18.1586C67.7777 19.1871 68.0815 20.3202 67.8714 21.3478L67.423 25.1128" stroke="black" stroke-width="0.600071" stroke-linecap="round" stroke-linejoin="round"/>
<path d="M65.4059 20.3087C65.8321 21.2664 65.7662 22.3716 65.2291 23.2719C65.0752 24.0017 65.0316 24.7506 65.0999 25.4934C64.8282 26.291 64.3315 27.1573 64.0607 27.9588L63.9316 30.1803C63.6668 31.2425 63.5513 32.3364 63.5884 33.4304C63.6634 34.7698 63.8548 36.1002 64.1605 37.4064" stroke="black" stroke-width="0.600071" stroke-linecap="round" stroke-linejoin="round"/>
<path d="M65.3175 21.7902C65.7877 22.6365 65.1274 23.7847 64.8529 24.5873C64.5413 26.1287 63.6473 27.3397 63.3319 28.8821C62.9491 30.23 62.6681 31.6047 62.491 32.9947C62.6038 34.1679 62.833 35.327 63.1754 36.4549" stroke="black" stroke-width="0.600071" stroke-linecap="round" stroke-linejoin="round"/>
<path d="M64.6983 22.1997C63.8318 23.9838 63.359 25.9334 63.3121 27.9163C63.3819 29.9686 63.6851 32.0064 64.2158 33.9902" stroke="black" stroke-width="0.600071" stroke-linecap="round" stroke-linejoin="round"/>
<path d="M66.8878 20.3978C65.9817 20.6408 65.4393 22.2441 65.1686 23.0456C64.2312 24.8362 63.6828 26.8047 63.5592 28.8221C63.4322 30.4208 63.5364 32.0295 63.8686 33.5985L64.6586 36.5448" stroke="black" stroke-width="0.600071" stroke-linecap="round" stroke-linejoin="round"/>
<path d="M67.8876 22.3157C67.7988 23.3406 67.3752 24.3078 66.6821 25.0681C65.8527 26.505 65.7644 27.9866 65.222 29.5899C64.7695 31.5517 64.5742 33.564 64.6412 35.5762C64.5693 36.9428 64.6118 38.313 64.7682 39.6725L65.4444 39.4912" stroke="black" stroke-width="0.600071" stroke-linecap="round" stroke-linejoin="round"/>
<path d="M67.3184 25.6265C67.4136 26.4062 67.2893 27.1969 66.9593 27.9097C66.3704 29.3065 66.0296 30.7952 65.952 32.3091C65.7558 33.4261 65.8155 34.5731 66.1266 35.6637C66.1233 36.6957 66.2363 37.7248 66.4635 38.7314" stroke="black" stroke-width="0.600071" stroke-linecap="round" stroke-linejoin="round"/>
<path d="M67.7992 23.7972C68.0589 24.4896 68.0918 25.2466 67.8931 25.9588C67.6398 27.5242 67.4956 29.1052 67.4616 30.6906C67.1025 32.9737 67.4831 35.3008 67.4096 37.7455L67.6366 37.6846" stroke="black" stroke-width="0.600071" stroke-linecap="round" stroke-linejoin="round"/>
<path d="M67.8601 24.0244C68.6947 26.2298 67.8207 28.4076 67.9147 30.5693C67.8875 32.556 68.0929 34.5391 68.5266 36.4781L68.3453 35.8019" stroke="black" stroke-width="0.600071" stroke-linecap="round" stroke-linejoin="round"/>
<path d="M68.1136 22.2551C69.025 25.6545 68.5146 29.1886 68.6874 32.5478C68.7642 33.7418 70.0905 41.4036 67.9895 41.7236" stroke="black" stroke-width="0.600071" stroke-linecap="round" stroke-linejoin="round"/>
<path d="M68.2353 22.7091C68.5391 23.8422 67.8762 24.9922 67.6651 26.02C67.3927 27.6584 67.2686 29.318 67.2945 30.9787C67.2667 32.6864 67.2392 34.395 67.1498 35.8768C67.1041 36.6139 67.6522 38.658 66.8067 39.127" stroke="black" stroke-width="0.600071" stroke-linecap="round" stroke-linejoin="round"/>
<path d="M65.5161 23.4382C65.9244 24.0536 65.6537 24.8592 65.61 25.5999C65.2509 27.883 64.83 29.9394 64.6967 32.161C64.6083 33.6426 64.2929 35.185 64.2042 36.6657C64.1585 37.4027 64.3588 39.0534 63.7396 39.4627" stroke="black" stroke-width="0.600071" stroke-linecap="round" stroke-linejoin="round"/>
<path d="M63.3329 28.8817C62.7021 31.9666 62.586 35.1559 61.9549 38.2398" stroke="black" stroke-width="0.600071" stroke-linecap="round"/>
<path d="M93.142 141.877L92.0089 142.181" stroke="black" stroke-width="0.600071" stroke-linecap="round"/>
<path d="M93.142 141.877C92.8923 142.569 92.1697 142.97 91.4503 142.816C91.269 142.14 91.5387 141.334 91.2957 140.428C91.3393 139.551 91.2668 138.672 91.0803 137.814L89.0751 130.335C88.899 129.866 88.6195 129.442 88.2574 129.096L87.7096 127.053C87.2547 126.485 86.915 125.833 86.7095 125.134C86.4426 124.388 85.9303 123.754 85.2564 123.337C84.2355 122.478 83.3209 121.5 82.5318 120.424C82.1235 119.809 81.3825 119.76 80.9734 119.142C80.5643 118.523 80.1994 117.162 79.4756 118.085C79.1441 118.66 79.2247 119.853 78.8895 120.429C78.6297 121.341 78.4739 122.279 78.4249 123.226C78.0453 124.903 77.7708 126.602 77.603 128.313C77.7858 130.267 77.7429 132.235 77.4752 134.178C77.1681 135.611 77.2327 137.099 77.6629 138.5C77.8286 139.285 77.8804 140.089 77.8165 140.888C77.9448 141.822 78.1899 142.736 78.5458 143.609C78.8371 145.148 79.2434 146.663 79.7613 148.142C80.7614 150.061 83.3804 153.488 85.9345 153.046C86.6399 152.979 87.3291 152.794 87.9738 152.5C88.5891 152.091 88.7422 150.836 88.7869 150.095C88.9967 149.066 89.2677 148.266 89.4785 147.237C89.6815 146.479 89.975 145.747 90.3525 145.059C90.7273 144.361 90.8539 143.556 90.7116 142.776" stroke="black" stroke-width="0.600071" stroke-linecap="round" stroke-linejoin="round"/>
<path d="M127.733 127.743L127.308 126.157C127.521 127.414 127.62 128.689 127.604 129.964C127.62 130.932 128.515 133.364 127.792 134.287" stroke="black" stroke-width="0.600071" stroke-linecap="round" stroke-linejoin="round"/>
<path d="M127.956 124.04C128.258 125.268 128.432 126.524 128.475 127.787C128.552 128.981 128.856 130.115 128.933 131.308C129.115 131.984 128.845 132.79 129.027 133.47L128.724 132.337" stroke="black" stroke-width="0.600071" stroke-linecap="round" stroke-linejoin="round"/>
<path d="M129.422 123.161L129.361 122.934C129.713 124.577 129.838 126.26 129.731 127.936C129.747 128.904 129.99 129.81 130.068 131.004C129.941 131.721 130.053 132.459 130.388 133.105C129.614 131.126 130.018 128.103 130.213 126.111C130.407 124.119 130.539 121.893 130.732 119.898C131.219 121.711 131.029 123.706 131.225 125.357C131.234 127.18 131.477 128.994 131.947 130.755C131.894 127.853 132.135 125.113 132.087 122.214C132.01 121.02 132.446 119.931 132.308 118.511C132.187 118.058 132.065 117.604 132.458 117.257C133.11 118.782 132.693 120.837 132.828 122.259C132.861 124.194 133.634 126.173 133.38 127.942C132.413 127.958 133.225 125.554 133.104 125.1C133.294 123.105 132.808 121.292 132.778 119.357C132.865 117.744 132.837 116.128 132.696 114.519C132.742 113.782 132.947 112.752 132.541 112.132L134.486 119.384C133.773 117.632 134.129 115.35 133.873 113.475C133.646 112.468 133.533 111.439 133.536 110.407C133.287 109.863 133.297 109.235 133.564 108.699C133.807 109.606 134.812 115.168 135.552 115.207C135.657 114.693 135.248 114.074 135.127 113.621C134.832 112.313 134.638 110.984 134.546 109.646C134.332 108.092 134.002 106.557 133.558 105.052C133.801 105.959 134.685 111.066 135.426 111.111C135.531 110.597 135.122 109.978 135.228 109.464C135.09 108.043 135.012 106.849 134.871 105.429C134.518 103.662 134.051 101.919 133.472 100.213L134.201 102.933C134.445 103.84 135.141 104.625 135.384 105.532C135.538 104.974 135.547 104.386 135.409 103.824C135.311 102.408 135.097 101.003 134.769 99.6227L132.945 92.8202" stroke="black" stroke-width="0.600071" stroke-linecap="round" stroke-linejoin="round"/>
<path d="M126.34 126.17C127.07 128.89 128.101 132.739 127.124 135.435L125.12 127.959C125.23 127.239 125.199 126.505 125.028 125.797C125.001 127.784 125.207 129.767 125.641 131.706C125.779 133.127 126.403 136.361 125.513 137.571C124.756 136.56 124.662 134.398 124.525 132.977C124.502 131.396 124.245 129.827 123.762 128.322C124.415 129.847 124.119 132.357 124.028 133.842C123.936 135.328 124.608 137.817 123.718 139.027C123.349 137.496 123.094 135.94 122.955 134.372C122.818 132.951 123.071 131.183 122.477 129.884C122.78 131.555 122.828 133.262 122.62 134.948C122.369 136.715 122.625 138.59 122.371 140.359L121.155 135.824C120.79 134.464 121.101 132.923 120.514 131.623C121.227 133.376 120.232 135.1 120.265 137.035C120.281 138.003 120.5 140.616 119.651 141.087C118.955 140.301 119.27 138.76 119.192 137.566C119.115 136.372 119.038 135.178 118.896 133.758C118.791 134.272 118.524 135.073 118.416 135.587C118.144 136.385 118.388 137.295 118.178 138.323C117.968 139.352 117.94 141.06 117.216 141.983L115.817 136.766C116.348 137.839 115.931 139.894 115.717 140.924C115.671 141.661 115.358 143.207 114.678 143.389C114.171 142.404 113.881 141.322 113.827 140.216C113.612 141.673 113.071 143.064 112.245 144.284C112.116 143.35 111.871 142.436 111.516 141.563C110.322 141.64 109.763 142.277 108.691 142.806C107.699 143.096 106.75 143.514 105.866 144.049C103.661 144.884 101.637 146.398 99.1442 147.066" stroke="black" stroke-width="0.600071" stroke-linecap="round" stroke-linejoin="round"/>
<path d="M136.681 94.9766C136.438 94.0695 136.709 93.2689 136.466 92.3619L135.433 88.5095C135.311 88.0564 135.024 87.8941 134.962 87.6632C134.607 86.7904 134.362 85.8766 134.233 84.943C133.965 84.1065 133.588 83.309 133.112 82.5712C132.581 81.499 132.625 80.758 131.869 79.7464C131.46 79.1311 131.277 78.4471 130.868 77.8277C130.808 77.6007 130.46 77.2123 130.398 76.9815C130.05 76.5893 130.217 76.3053 129.641 75.9698C130.038 78.0523 130.664 80.0843 131.509 82.0286C132.757 84.1455 133.697 86.4298 134.299 88.8123C133.885 87.1383 133.363 85.4929 132.735 83.8867C132.42 83.1661 132.215 82.4021 132.128 81.6204C131.946 80.9442 131.371 80.6088 131.188 79.9287L133.315 87.8615C133.497 88.5377 135.409 93.8597 134.564 94.3296" stroke="black" stroke-width="0.600071" stroke-linecap="round" stroke-linejoin="round"/>
<path d="M85.1764 152.03L85.1155 151.803C84.3471 153.467 83.8824 156.264 85.0486 157.895C85.8006 158.731 86.7242 159.395 87.7563 159.841C88.2702 159.947 88.8894 159.537 89.4034 159.643C89.8564 159.521 90.1404 159.689 90.8244 159.505" stroke="black" stroke-width="0.600071" stroke-linecap="round" stroke-linejoin="round"/>
<path d="M87.2166 151.483C86.3713 151.953 86.6751 153.086 86.4035 153.888C85.961 155.072 85.8838 156.362 86.1818 157.591C86.5018 159.692 89.465 159.869 91.1279 160.638" stroke="black" stroke-width="0.600071" stroke-linecap="round" stroke-linejoin="round"/>
<path d="M84.8116 150.67C85.5488 151.704 86.4485 152.611 87.4756 153.357C87.92 153.781 88.4248 154.137 88.9734 154.413C89.7711 154.685 90.001 154.624 90.8028 154.895C92.5104 154.923 97.303 155.582 97.4569 157.97" stroke="black" stroke-width="0.600071" stroke-linecap="round" stroke-linejoin="round"/>
<path d="M86.2923 150.758C86.535 152.341 87.5356 153.706 88.9723 154.413C90.2514 155.017 91.5959 155.471 92.9792 155.767C94.2937 156.14 95.7157 156.006 96.9256 156.896" stroke="black" stroke-width="0.600071" stroke-linecap="round" stroke-linejoin="round"/>
<path d="M81.1853 151.642C81.777 152.941 81.1776 154.317 81.0245 155.572C80.9788 156.309 81.0168 158.247 79.8798 158.552" stroke="black" stroke-width="0.600071" stroke-linecap="round" stroke-linejoin="round"/>
<path d="M79.3937 156.738C78.7175 156.92 78.8389 157.373 78.5037 157.949L77.7191 158.645C76.5403 159.686 76.982 158.6 76.4483 157.528C75.833 157.936 75.5135 159.479 74.3804 159.783" stroke="black" stroke-width="0.600071" stroke-linecap="round" stroke-linejoin="round"/>
<path d="M77.0175 154.217C77.2445 154.157 77.4706 154.096 77.4097 153.869L77.045 152.509C77.6794 153.064 78.1229 155.621 78.5721 155.501C78.7819 154.472 78.1306 152.947 77.5998 151.874C78.5192 152.6 78.7213 154.246 79.8713 154.909C79.4143 153.658 79.0686 152.368 78.8382 151.056C79.6957 151.551 79.8382 152.974 80.7006 153.472C80.7463 152.735 80.109 152.173 80.6067 151.311C81.5128 151.068 82.0598 153.108 82.2421 153.788C81.8338 153.173 81.6792 150.781 82.5244 150.311C83.0398 151.117 83.4379 151.992 83.7068 152.91C83.4636 152.002 83.6737 150.975 83.4305 150.068C84.6245 149.991 84.2046 152.047 85.1713 152.03C85.217 151.293 84.5475 148.796 86.1498 149.339C86.9475 149.61 87.2105 151.483 87.5554 151.878C88.0503 151.02 86.599 149.218 87.9592 148.854C88.3076 149.246 88.263 149.987 88.6114 150.379C89.0198 150.994 89.3077 151.165 89.2637 151.904C88.8065 150.653 88.4607 149.363 88.2306 148.051C89.0881 148.546 89.0652 150.256 89.5344 151.103C90.7731 150.285 88.6677 146.962 89.966 146.371C90.8235 146.866 91.1653 149.936 91.4691 151.07C91.6089 150.114 91.5141 149.139 91.1928 148.228C90.9656 147.221 90.8526 146.192 90.8559 145.16C92.3375 145.248 91.9497 149.24 93.4315 149.329C93.7033 148.531 92.9292 146.548 94.1232 146.471C95.0293 146.228 95.5154 148.041 95.6978 148.721" stroke="black" stroke-width="0.600071" stroke-linecap="round" stroke-linejoin="round"/>
<path d="M72.2975 74.0962L72.7505 73.9747C73.0992 74.7991 73.551 75.576 74.0952 76.2867L76.0024 77.9622C76.4766 78.4388 76.8693 78.9901 77.1647 79.5941C77.6091 80.0182 78.1138 80.3742 78.6625 80.6504C79.6359 81.6164 80.4968 82.6896 81.2287 83.8494C82.4163 85.2221 83.4007 86.7582 84.1518 88.4106L84.4556 89.5437C84.6369 90.2199 85.09 90.0985 85.4965 90.7226C86.1308 91.2773 86.3142 91.9612 86.9496 92.5198C88.0511 93.9247 89.2651 94.8148 90.0826 96.0525C90.9287 97.3446 91.9026 98.5484 92.9895 99.6458C93.5386 100.147 93.8928 100.827 93.9896 101.564C94.2934 102.698 94.9288 103.256 95.2326 104.389L96.5695 109.376C96.7411 110.083 96.773 110.818 96.6635 111.537C96.9986 112.334 97.2235 113.173 97.332 114.031C97.2884 114.908 97.3609 115.787 97.5474 116.645C97.7906 117.552 97.5196 118.353 97.7628 119.26C97.9494 120.118 98.0218 120.998 97.9783 121.875L98.3427 123.234C98.524 123.91 98.297 123.971 98.1934 124.489C98.1656 126.196 98.1381 127.905 98.0488 129.387C97.9589 129.784 97.9856 130.198 98.1256 130.581L98.4294 131.714C98.3837 132.451 97.8271 133.09 97.7824 133.831C97.241 135.434 96.9862 137.202 96.5046 139.033C96.2948 140.061 96.1455 141.316 95.9345 142.344C95.8739 142.975 95.7115 143.593 95.4536 144.173C95.1819 144.97 94.6852 145.837 94.8675 146.517" stroke="black" stroke-width="0.600071" stroke-linecap="round" stroke-linejoin="round"/>
<path d="M71.042 73.9471L70.9811 73.7201C70.7093 74.5177 70.0912 74.931 70.0463 75.6709C69.752 76.4242 69.5551 77.2118 69.4601 78.0149C69.1486 79.5563 69.344 81.2042 69.0286 82.7466C68.8288 84.2192 68.7398 85.7048 68.7622 87.1907C68.4895 88.809 68.4408 90.4572 68.6176 92.0888C68.7156 93.7226 68.6672 95.3618 68.4729 96.9869C68.3954 98.4304 68.4582 99.878 68.6606 101.309C68.4336 101.37 68.4944 101.597 68.329 101.884L68.6937 103.244C68.7099 104.212 68.6659 104.952 68.686 105.918C68.5804 106.432 68.7628 107.112 68.6582 107.626C68.5536 108.14 68.2858 108.941 68.1774 109.455L67.2283 114.083C66.9774 115.851 66.8851 117.334 66.6306 119.103C66.5422 120.585 66.8052 122.458 66.7129 123.94C66.3721 125.723 66.2887 127.545 66.4654 129.351C66.4423 130.227 66.5145 131.104 66.6808 131.965L66.9846 133.098C67.1061 133.551 66.7129 133.896 66.8354 134.353C67.2078 136.195 67.6949 138.011 68.2938 139.792L69.9955 146.139C70.1729 147.088 70.5787 147.98 71.1779 148.738C72.0108 149.495 72.7344 150.363 73.3279 151.32" stroke="black" stroke-width="0.600071" stroke-linecap="round" stroke-linejoin="round"/>
<path d="M69.3794 63.2165C69.4562 64.4105 72.0434 65.9036 72.7394 66.6883C74.4195 68.4247 76.658 69.5247 78.5033 70.9735C79.7132 71.8636 80.8188 73.2684 82.361 73.5829C84.0758 74.2531 85.6546 75.2294 87.0205 76.464C88.2304 77.3541 89.8337 77.8965 91.0437 78.7867C92.3144 79.9039 93.5253 80.7938 94.7961 81.911C95.084 82.0771 95.3706 82.2426 95.4305 82.4657C95.4903 82.6889 95.8388 83.0811 95.9007 83.3119C96.2992 83.9756 96.7883 84.5805 97.3538 85.1092C98.4553 86.5141 99.3377 87.9787 100.382 89.1565C101.261 90.6212 102.079 91.8598 102.958 93.3253C103.502 94.0359 103.954 94.8128 104.303 95.6372C104.678 96.5857 104.944 97.5743 105.093 98.5835L107.099 106.066C107.16 106.293 106.993 106.58 107.115 107.034L107.54 108.619C107.512 110.327 107.998 112.14 107.744 113.91C107.554 115.904 108.101 117.944 107.964 120.167C107.918 120.904 107.652 121.708 107.605 122.45C107.621 123.418 107.577 124.158 107.597 125.125C107.387 126.152 106.889 127.015 106.679 128.043C106.263 129.314 105.691 130.528 104.976 131.658C104.279 132.869 103.728 134.159 103.333 135.5C102.895 136.888 102.367 138.247 101.752 139.567C100.485 142.094 100.431 145.513 98.6501 147.931" stroke="black" stroke-width="0.600071" stroke-linecap="round" stroke-linejoin="round"/>
<path d="M68.2796 65.4558C67.6643 65.8641 67.6167 66.6058 67.2233 66.9535C66.7099 67.6767 66.2656 68.4466 65.8962 69.2529C65.1278 70.9168 64.0106 72.1876 63.2422 73.8515C61.9929 77.3446 59.8813 80.344 58.4648 84.1211L56.6611 88.2494C56.0272 89.8197 55.4844 91.4252 55.0355 93.0579C54.4941 94.661 54.6318 96.082 54.3161 97.6235C54.0458 99.392 53.6182 101.133 53.0384 102.825C52.5798 103.744 52.2701 104.729 52.1207 105.744C51.97 106.8 51.9311 107.869 52.0045 108.933C51.7947 109.962 51.5237 110.762 51.3129 111.791C51.1972 112.679 51.1946 113.577 51.3051 114.466C51.4563 117.936 51.9708 121.381 52.8401 124.744L54.1771 129.73C54.3262 130.74 54.5913 131.728 54.967 132.677C55.4373 133.523 56.2984 134.02 56.7686 134.866C57.8701 136.271 58.5256 137.797 59.7973 138.914C60.4785 139.573 61.0828 140.308 61.5989 141.103C61.9584 141.838 62.3884 142.536 62.8827 143.188C63.5606 143.696 64.1982 144.257 64.7899 144.863C65.3059 145.659 65.9103 146.393 66.5915 147.053C67.154 147.813 67.7553 148.544 68.3931 149.242C69.0274 149.797 69.7694 149.846 70.4045 150.403C71.0396 150.961 71.1614 151.415 71.7968 151.973" stroke="black" stroke-width="0.600071" stroke-linecap="round" stroke-linejoin="round"/>
<path d="M64.2134 53.9126C64.1677 54.6497 63.5505 55.0626 62.9919 55.698C62.4251 56.4594 61.9965 57.3145 61.7258 58.2243C61.0179 60.1143 60.598 62.1704 59.8904 64.0614L59.0809 66.4642C58.842 67.2099 58.4461 67.8958 57.92 68.4757C57.2571 69.6257 57.1675 71.1066 56.6707 71.9687L55.0114 74.8438C54.5165 75.7013 54.639 76.1582 53.8505 76.8553C53.2957 77.4896 52.8986 77.8353 52.3411 78.4745C51.7462 79.2616 51.0273 79.9468 50.2125 80.5031C49.4279 81.1991 48.7031 82.1224 48.0839 82.5317C45.111 84.5033 42.6561 87.1613 40.9266 90.2813C39.6604 92.8076 37.941 95.4545 37.7023 98.1868C37.699 99.2188 37.812 100.248 38.0392 101.255C38.2263 102.115 38.2988 102.995 38.2549 103.874C38.2711 104.842 38.2272 105.582 38.2472 106.549C38.2962 106.945 38.3219 107.344 38.324 107.743C38.4062 108.237 38.376 108.744 38.2356 109.225C38.1485 110.979 38.2934 112.737 38.6665 114.454L39.335 116.947C39.5782 117.854 39.3681 118.882 39.6719 120.015C40.5227 123.188 41.0011 127.676 43.3734 130.198C44.4142 131.377 45.6449 133.233 46.8551 134.124C48.7014 135.572 50.5467 137.021 52.1659 138.531C54.8299 141.218 58.55 142.41 61.3794 144.807C62.7694 146.008 64.2744 147.069 65.8725 147.975C67.0824 148.865 69.3212 149.966 70.8465 149.314" stroke="black" stroke-width="0.600071" stroke-linecap="round" stroke-linejoin="round"/>
<path d="M62.6593 56.2686C63.1732 56.3741 64.124 55.3902 64.577 55.2688C65.4223 54.7988 65.5887 54.5119 66.6771 54.949C68.1141 55.7783 69.3848 56.8955 70.8218 57.7248C72.174 58.638 73.4312 59.6847 74.5742 60.8491C75.6677 61.7998 76.8667 62.6216 78.1478 63.2986C81.1051 65.2611 84.2397 66.9423 87.5105 68.3201C90.0359 69.5866 93.06 69.9903 95.4779 71.7753C96.6878 72.6655 97.6717 73.6163 98.8826 74.5062C99.2514 75.0206 99.7007 75.4722 100.213 75.8434C100.91 76.629 101.772 77.1257 102.468 77.9114C103.034 78.4401 103.523 79.0449 103.921 79.7086C104.556 80.2633 105.07 80.3727 105.707 80.9301C106.329 81.5075 106.842 82.193 107.22 82.9534C107.691 83.7996 108.613 84.5236 109.143 85.5959C110.022 87.0606 110.386 88.4207 111.265 89.8864C112.094 91.7528 112.7 93.7101 113.072 95.7181C113.63 97.348 114.077 99.014 114.409 100.705C114.363 101.442 114.32 102.186 114.34 103.152C114.462 103.605 114.068 103.95 114.191 104.407L114.616 105.993C114.509 108.522 114.034 111.021 113.205 113.412C112.392 115.817 112.154 118.553 111.34 120.953C110.706 122.524 110.163 124.129 109.714 125.762C109.234 127.591 108.874 129.874 107.879 131.599C106.613 134.125 105.12 136.711 103.854 139.238C103.485 140.044 103.041 140.814 102.527 141.537C102.196 142.111 101.575 142.517 101.698 142.974" stroke="black" stroke-width="0.600071" stroke-linecap="round" stroke-linejoin="round"/>
<path d="M64.8506 44.5098L65.0776 44.4489C65.1145 44.7049 65.2644 44.9308 65.4859 45.0642C66.392 44.8213 66.9228 45.8935 67.3322 46.5127C68.2106 47.2845 69.1999 47.9201 70.2669 48.3984C70.5548 48.5645 71.0646 48.6701 71.4162 49.0625C71.7678 49.4549 71.8864 49.9087 72.1731 50.0742C72.7476 50.4057 73.5494 50.6774 73.8979 51.0696C74.8173 51.7954 75.1686 52.1868 76.1972 52.3967C76.9949 52.6684 77.8611 53.1651 78.6617 53.4361C79.2709 53.8271 79.9261 54.1411 80.6125 54.3709L83.6965 55.002C84.4283 55.1226 85.1404 55.3417 85.8136 55.6531C86.3275 55.7586 86.7805 55.6371 87.128 56.0255C87.7025 56.357 87.7623 56.5802 88.3379 56.9156C90.2279 57.6235 91.9964 57.8783 93.6603 58.6467C95.2563 59.1487 96.7663 59.8916 98.138 60.8497C99.5436 61.6266 100.907 62.4781 102.221 63.4007C104.929 65.3471 107.079 67.9288 109.787 69.8753C111.285 70.9316 112.163 72.3963 113.496 73.7402C113.904 74.3556 114.827 75.0835 115.236 75.7027C115.706 76.5489 115.949 77.455 116.419 78.3014C116.995 78.9795 117.382 79.7977 117.54 80.6732C117.783 81.5803 118.419 82.1379 118.662 83.045L119.026 84.4051C119.148 84.8582 119.601 84.7367 119.661 84.9599L120.025 86.32C120.207 86.9962 120.843 87.5586 121.025 88.2387C121.86 90.4441 121.849 93.1197 122.909 95.2654C124.177 97.7274 124.902 100.432 125.036 103.198C125.308 105.499 125.442 107.815 125.437 110.132" stroke="black" stroke-width="0.600071" stroke-linecap="round" stroke-linejoin="round"/>
<path d="M65.0916 45.4164L62.6003 46.0844C61.8779 46.3922 61.2558 46.8958 60.8042 47.5382C59.4613 48.8705 59.1456 50.412 58.3772 52.076C57.6469 53.4509 56.7722 54.7442 55.7678 55.9337C55.213 56.568 54.4248 57.266 53.8662 57.9014C53.3076 58.5368 53.0369 59.3384 52.4177 59.7477C51.9226 60.3479 51.3118 60.8423 50.6217 61.2015C50.0934 61.7672 49.4889 62.2565 48.8256 62.6553C47.6468 63.6962 46.1225 64.3524 45.0063 65.6229C44.0545 66.6029 42.6517 67.7121 42.2754 69.0276C42.0037 69.8252 41.6731 70.4036 41.5676 70.9175C41.1111 71.8167 40.5097 72.6346 39.7875 73.3383L37.1175 76.97C36.0792 78.2158 35.3095 79.6627 34.8566 81.2199C34.3204 82.6334 33.9818 84.114 33.8505 85.62C33.6684 87.6505 33.2245 89.6489 32.5298 91.5655C32.4243 92.0794 31.9751 92.1999 31.805 92.4847L31.4935 94.0261C31.2217 94.8238 30.8912 95.4022 30.6195 96.204C30.0781 97.807 30.2763 99.4541 30.0218 101.224C29.875 102.109 29.8724 103.012 30.0141 103.898C30.182 104.607 30.2101 105.341 30.0969 106.061C30.3545 107.928 30.8445 109.755 31.5553 111.5C32.0255 112.346 32.5554 113.419 33.0215 114.265C33.5568 115.149 33.9746 116.098 34.2645 117.09C34.8048 119.152 35.5823 121.145 36.5814 123.028C37.5086 125.035 38.6678 126.925 40.0354 128.662C40.722 129.422 41.4811 130.114 42.3019 130.728C42.6703 131.244 43.1199 131.698 43.6333 132.071C44.4908 132.566 45.2366 132.613 45.5404 133.746" stroke="black" stroke-width="0.600071" stroke-linecap="round" stroke-linejoin="round"/>
<path d="M64.5462 39.7332C65.0932 41.7734 64.7339 44.0555 64.6008 46.2781C64.617 47.246 64.5615 50.6613 63.7162 51.1312C63.6925 50.5318 63.7775 49.933 63.9671 49.3638C64.3026 47.9623 64.488 46.529 64.52 45.0883C64.587 43.255 64.4215 41.4206 64.0275 39.6289C64.1589 40.5907 64.1768 41.5646 64.0806 42.5305C64.1654 44.2385 64.1374 45.9503 63.9966 47.6546C63.6981 50.1638 63.7474 53.0664 62.4203 55.3657C62.2776 54.586 62.4042 53.7809 62.7794 53.0826C63.0519 51.4442 63.176 49.7846 63.1501 48.1239C63.2335 47.4029 63.2018 46.6733 63.0562 45.9622C63.04 44.9943 63.537 44.1331 63.4599 42.9382C63.5011 42.139 63.4492 41.3377 63.3054 40.5505C63.4836 42.2196 63.1765 43.9047 62.4208 45.4036C62.034 44.4786 62.015 43.4407 62.3676 42.5021C62.7299 42.9456 62.8847 43.523 62.7929 44.0883C62.7159 44.4743 62.5692 44.8432 62.3599 45.1766C62.2544 45.6905 62.0882 45.9743 62.2107 46.4312C62.0433 47.6702 61.6177 48.8602 60.9614 49.9243C60.4665 50.7818 59.3914 51.3175 58.8328 51.9529C58.5012 52.5274 57.881 52.9329 57.5505 53.5113C57.6113 53.7383 57.5047 54.2483 57.2787 54.3089C57.0527 54.3695 56.8865 54.6574 56.724 54.9433C58.2654 55.2548 60.7094 51.6879 61.3726 50.5388C62.5741 48.167 63.4499 45.6439 63.9764 43.0378C63.4868 44.246 63.0895 45.4896 62.788 46.7579C62.6388 48.0125 62.8412 49.6595 62.4002 50.7489C61.7039 49.9633 62.4886 49.2673 62.0196 48.4218C62.583 49.8735 62.67 51.4668 62.2681 52.9712C62.1913 51.7772 62.8542 50.6272 63.0034 49.3726C63.3758 48.0582 63.529 46.8026 63.9052 45.4871C64.613 43.5971 64.5191 41.4355 64.94 39.3791C65.2438 40.5122 64.7024 42.1153 64.7792 43.3093C64.7335 44.0463 64.5416 46.0455 65.177 46.604C65.7317 45.9697 65.4146 43.8679 65.4593 43.1269C65.4431 42.159 64.5638 40.6945 65.0615 39.8321C65.4698 40.4475 65.3206 41.7062 65.3378 42.6739L66.1277 45.6202C66.4315 46.7533 66.8846 46.6318 67.8079 47.3566C68.3824 47.6881 68.9093 48.7614 69.5933 48.5781C69.5991 48.0007 69.3624 47.4474 68.941 47.0528C68.138 46.1065 67.4516 45.0672 66.8964 43.9572C66.4262 43.111 66.4712 42.371 66.001 41.5248C65.5926 40.9095 64.9601 40.346 65.2269 39.5455C66.0844 40.0404 66.2876 41.6903 66.754 42.5375C67.3219 43.5549 67.9852 44.5159 68.735 45.4078C69.7759 46.5866 71.2326 48.3819 72.9405 48.4106C73.0244 48.3019 73.0529 48.1603 73.0173 48.0276C72.9817 47.8949 72.8863 47.7865 72.7592 47.7344" stroke="black" stroke-width="0.600071" stroke-linecap="round" stroke-linejoin="round"/>
<path d="M69.3281 36.7487C69.9358 39.0149 68.8357 41.2534 70.5767 43.2167C71.6176 44.3956 73.1021 44.4832 74.5837 44.5716C75.6113 44.7817 77.6515 44.2347 78.5747 44.9594C77.8985 45.1407 77.1984 44.3561 76.6847 44.2516C75.3084 43.6483 73.7662 43.3339 72.3899 42.7306C70.953 41.9013 68.1844 39.7278 67.9243 37.854C68.0873 38.4092 68.3897 38.9134 68.8026 39.3187C69.5595 40.3303 70.3772 41.569 71.1351 42.5804C71.5428 43.1283 72.0777 43.5687 72.6937 43.8637C72.9816 44.0299 73.39 44.6493 73.6131 44.5895C73.7187 44.0756 72.7954 43.3508 72.4508 42.9576C71.6939 41.946 70.937 40.9343 70.1184 39.6959C69.1429 37.7084 68.2725 35.671 67.5106 33.5922C68.3614 36.7656 68.8807 40.5134 70.5767 43.2167C69.5598 40.3313 68.9968 37.3241 68.2066 34.3769C68.6398 36.4456 69.1876 38.4886 69.8474 40.4965C70.2557 41.1118 71.3135 43.2615 72.345 43.4706C72.4334 41.989 71.555 40.5243 70.9633 39.225C70.4931 38.3788 69.801 37.5931 69.3279 36.7477C68.9196 36.1324 68.9632 35.3876 68.3278 34.829C67.9687 37.1121 70.1178 39.694 71.284 41.3248C72.3249 42.5037 74.2518 45.1451 76.1259 44.886C74.5066 43.3766 72.2073 42.0496 70.588 40.5402C69.3173 39.423 68.4986 38.1846 67.2281 37.0684C66.8203 36.5209 66.2854 36.0808 65.6697 35.786C65.4187 37.5535 66.869 39.3515 67.4597 40.651L68.6143 44.9575C68.2796 43.4123 67.7173 41.9255 66.9458 40.5455C66.4149 39.4733 66.2773 38.0523 65.5813 37.2676C65.1613 39.3238 66.9342 43.2211 65.1381 44.6749C63.9149 42.816 64.4157 39.2772 64.8403 37.223C65.0538 38.4806 65.1529 39.7551 65.1364 41.0306C65.0907 41.7677 64.8249 42.572 64.7773 43.3138C64.6718 43.8277 65.0205 44.2208 64.6281 44.5683C63.7498 43.1036 64.2105 40.3076 64.2419 38.598C64.432 36.6035 64.3419 34.4408 65.1095 32.774C65.0638 33.511 64.4466 33.924 64.3411 34.4379C63.6655 36.4335 63.2419 38.5058 63.0802 40.6065L62.8139 45.0506C62.6671 45.9359 62.6645 46.8391 62.8061 47.7252C62.169 45.1832 61.8734 42.5676 61.9271 39.9476C62.0155 38.466 62.3309 36.9235 62.4196 35.4429C62.4653 34.7058 62.2819 34.0219 62.9004 33.6137C63.3087 34.2291 62.7103 35.6082 62.6019 36.1229C62.3102 37.5332 62.1253 38.9635 62.0489 40.4016C61.9605 41.8832 62.4058 44.4362 61.5726 45.8742C60.7549 44.6356 60.6004 42.2478 60.4627 40.8269C60.4824 39.4881 60.6121 38.1533 60.8505 36.8358C60.782 39.2834 60.4799 41.7945 60.6344 44.1822C60.2453 42.5767 59.9702 40.9457 59.8114 39.3013C60.7783 39.2854 60.2975 41.1145 60.3137 42.0824L60.9213 44.3486" stroke="black" stroke-width="0.600071" stroke-linecap="round" stroke-linejoin="round"/>
<path d="M74.1338 145.273L75.2275 149.352C75.7137 151.166 78.0567 151.752 78.9363 153.217" stroke="black" stroke-width="0.600071" stroke-linecap="round"/>
<path d="M76.0192 142.337C76.351 144.028 76.7977 145.694 77.3562 147.324C77.66 148.457 78.4168 149.469 78.7206 150.602C79.1908 151.448 79.5553 152.807 80.4776 153.532C80.6437 153.244 80.8091 152.958 80.4614 152.564" stroke="black" stroke-width="0.600071" stroke-linecap="round" stroke-linejoin="round"/>
<path d="M78.4508 141.443C78.8545 143.12 79.3772 144.766 80.0147 146.369C80.4311 147.469 80.7364 148.607 80.9262 149.768C81.1075 150.444 81.3068 152.095 81.8825 152.427C82.0168 152.023 81.8974 151.577 81.5787 151.294" stroke="black" stroke-width="0.600071" stroke-linecap="round" stroke-linejoin="round"/>
<path d="M81.1263 141.455L81.5794 141.333C81.9877 141.948 82.2925 143.085 82.7009 143.705C83.1582 144.956 83.5039 146.246 83.7341 147.558L84.8278 151.638" stroke="black" stroke-width="0.600071" stroke-linecap="round" stroke-linejoin="round"/>
<path d="M83.8616 141.693C84.8286 141.677 86.3807 149.277 86.7454 150.637L86.6845 150.41" stroke="black" stroke-width="0.600071" stroke-linecap="round" stroke-linejoin="round"/>
<path d="M86.6097 139.256C87.4074 139.527 87.4274 140.494 87.6097 141.174L88.6426 145.027C88.9182 146.809 89.3096 148.572 89.8142 150.304" stroke="black" stroke-width="0.600071" stroke-linecap="round"/>
<path d="M89.1626 138.813C89.5273 140.173 90.2841 141.185 90.6488 142.545L91.0143 143.908" stroke="black" stroke-width="0.600071" stroke-linecap="round" stroke-linejoin="round"/>
<path d="M90.8595 141.516C90.7987 141.289 90.7381 141.063 90.9651 141.003C91.7828 142.241 91.8159 144.176 92.1806 145.536" stroke="black" stroke-width="0.600071" stroke-linecap="round"/>
<path d="M112.565 142.743L113.018 142.622C113.401 143.144 113.575 143.791 113.504 144.435C112.647 143.94 112.791 142.682 112.322 141.836C111.937 142.341 111.842 143.011 112.071 143.603L111.219 140.427C111.401 141.103 111.496 143.269 112.462 143.252C113.429 143.235 113.651 139.532 113.983 138.957C114.697 140.71 113.58 141.981 113.778 143.628C112.629 142.964 112.927 140.455 112.17 139.443C110.645 140.096 111.164 143.843 109.638 144.495C108.82 143.256 109.706 142.048 108.892 140.808C107.925 140.824 107.836 142.306 107.731 142.819C107.426 143.898 106.962 144.925 106.354 145.866C105.464 147.077 105.327 145.656 105.023 144.523C105.244 144.656 105.394 144.882 105.431 145.138C104.647 145.834 102.938 145.807 102.032 146.05C101.058 146.146 100.206 146.744 99.7855 147.627C103.128 146.425 106.18 144.531 108.741 142.068" stroke="black" stroke-width="0.600071" stroke-linecap="round" stroke-linejoin="round"/>
<path d="M132.369 102.449L132.822 102.327C133.701 103.792 133.916 106.407 134.342 107.994L135.132 110.94C135.029 111.582 135.04 112.237 135.165 112.875C135.314 111.62 135.524 110.592 135.674 109.337C135.884 108.308 135.58 107.175 135.79 106.148C135.979 105.248 136.059 104.33 136.028 103.411C136.013 101.512 135.75 99.6221 135.246 97.7906L134.394 94.6135C134.191 95.4056 134.245 96.2417 134.548 97.0012C134.913 98.3613 134.764 99.6159 135.128 100.976C135.31 101.652 135.591 108.14 134.503 107.703C133.381 105.331 133.619 102.595 133.691 100.147C133.695 99.1147 133.582 98.0856 133.354 97.0789C133.111 96.1719 133.321 95.1443 133.078 94.2372L134.172 98.3166C135.023 101.49 133.773 104.983 133.143 108.068C132.647 111.108 131.995 114.121 131.19 117.094C130.818 118.409 129.863 119.394 129.487 120.709C129.155 121.284 129.277 121.738 128.885 122.085C128.755 120.95 128.952 119.801 129.455 118.774C130.334 115.932 131.37 113.14 132.556 110.411C133.264 108.521 134.093 107.083 134.74 104.966C135.088 103.998 135.226 102.967 135.144 101.942C135.394 103.218 135.416 104.528 135.21 105.811C135.078 108.091 134.793 110.358 134.358 112.599C133.938 114.656 133.517 116.712 132.87 118.829C132.497 120.143 132.013 121.974 131.001 122.731C130.305 121.946 130.907 120.57 131.117 119.542C131.704 117.198 131.837 114.977 132.196 112.693C132.555 110.41 133.081 107.84 133.441 105.557C133.4 104.143 133.51 102.729 133.768 101.339C134.359 102.638 133.922 103.726 133.546 105.042C133.343 105.966 133.188 106.899 133.081 107.839C132.934 108.856 132.626 109.842 132.169 110.762C131.849 112.946 131.372 115.104 130.742 117.219C130.431 118.76 129.885 120.364 129.57 121.906C128.149 122.043 129.697 116.041 129.803 115.527C130.075 114.729 131.849 108.662 132.877 108.872C133.485 111.139 132.898 113.483 132.478 115.539C132.19 118.082 131.641 120.588 130.84 123.019" stroke="black" stroke-width="0.600071" stroke-linecap="round" stroke-linejoin="round"/>
<path d="M122.393 135.006C122.924 136.079 120.613 137.427 119.994 137.836C118.815 138.877 117.7 140.152 116.34 140.516C114.913 141.181 113.438 141.738 111.929 142.185L108.529 143.096C111.629 142.292 114.557 140.931 117.169 139.079C118.815 137.917 120.237 136.466 121.365 134.796C121.798 133.708 122.962 131.696 122.886 130.502C122.101 131.198 121.89 132.226 121.106 132.922C119.657 134.769 118.436 136.554 116.922 138.174C114.358 141.291 112.638 143.939 108.62 145.26C111.881 142.927 114.264 139.13 116.889 136.24C118.564 134.333 120.814 132.758 121.688 130.58C121.176 131.652 120.434 132.597 119.516 133.35C117.614 135.317 116.348 137.843 114.386 139.584C112.196 141.386 109.51 144.05 106.564 144.84C107.909 144.356 109.212 143.764 110.462 143.07C111.761 142.478 112.774 141.725 114.071 141.13C115.143 140.599 116.276 140.295 117.349 139.765C118.874 139.113 120.809 139.081 122.153 137.752C122.708 137.118 122.982 136.316 123.541 135.68C123.933 135.332 124.156 135.272 124.266 134.761C123.254 135.518 122.817 136.607 121.867 137.591C120.269 139.011 118.601 140.351 116.869 141.603C116.254 142.012 109.955 146.616 109.634 144.516" stroke="black" stroke-width="0.600071" stroke-linecap="round" stroke-linejoin="round"/>
<path d="M71.397 24.5338L71.3362 24.3068C70.4463 25.5177 70.6614 28.1314 70.6339 29.84C70.5515 32.0647 70.82 34.2885 71.4294 36.4296C70.9593 34.5232 70.6033 32.5904 70.3632 30.6416C70.1041 28.7675 70.297 26.7723 69.8109 24.9591C70.3353 26.8655 70.6186 28.8301 70.654 30.8069C70.5029 32.638 70.8286 34.477 71.5995 36.1448C71.9311 35.5703 71.4619 34.7238 71.5056 33.9832C71.3318 32.5814 71.0419 31.1966 70.6388 29.8429C70.5173 29.3898 69.8935 26.1556 70.3427 26.0352C70.6912 26.4274 70.6465 27.1683 70.768 27.6214L71.8618 31.7008C72.4088 33.741 72.4419 35.6756 72.9886 37.7149C72.5025 35.9017 72.5302 34.194 72.1047 32.6069L71.2531 29.4307C71.0099 28.5236 70.3748 27.966 70.1924 27.2859C70.8455 29.3894 71.2642 31.5586 71.441 33.754L71.6762 37.3347C71.977 38.1721 72.0513 39.0741 71.8917 39.9494C70.9194 36.323 69.494 32.8181 68.5218 29.1918C68.9583 31.2729 69.2803 33.3763 69.4863 35.4927C69.6846 37.1397 69.4916 39.135 69.8563 40.4951C69.4028 38.3507 68.8348 36.2321 68.1547 34.1485L67.0001 29.8421C66.7587 29.0895 66.6304 28.3052 66.6194 27.515C67.5586 29.2067 67.7132 31.5944 68.1993 33.4076C68.7337 35.5041 68.9053 37.6766 68.707 39.831C67.9501 38.8193 67.7347 36.2046 67.37 34.8445L66.5801 31.8982C66.3988 31.222 66.6079 30.1905 66.1995 29.5711C66.3808 30.2473 66.8518 31.0964 67.0341 31.7765C67.5522 33.255 67.9585 34.7704 68.2496 36.3099" stroke="black" stroke-width="0.600071" stroke-linecap="round" stroke-linejoin="round"/>
</g>
</svg>
