<svg width="141" height="194" viewBox="0 0 141 194" fill="none" xmlns="http://www.w3.org/2000/svg">
<g opacity="0.4">
<g opacity="0.3">
<path d="M17.2788 44.7219L16.3504 41.4843C16.2957 41.006 16.386 40.5223 16.6098 40.0961C16.7771 39.454 16.7359 38.7755 16.4922 38.1584C17.0488 36.2864 17.377 34.3539 17.4696 32.403C17.5158 30.5433 18.2568 28.7683 19.5467 27.4278C21.0202 25.6914 22.7534 24.099 24.2259 22.3628" stroke="black" stroke-width="0.8"/>
<path d="M24.7755 21.9868C25.6716 21.2918 26.1637 22.2461 26.7423 22.7367C27.4373 23.6328 27.2647 24.5582 26.6572 24.7325C25.1258 26.267 22.0895 25.6042 21.4557 27.9758C18.5155 37.5782 21.0122 47.8125 26.7454 55.5874C27.8752 57.2348 30.3905 57.6079 32.2995 58.156C36.088 58.3835 39.9057 59.4787 41.9903 62.1662C43.1201 63.8136 44.8855 66.1536 44.0764 67.9138C42.9218 69.9968 40.3197 70.0865 39.6277 72.2552C39.2184 74.0413 38.6989 75.8002 38.0721 77.522C37.2062 79.0842 35.1233 77.9296 33.5045 78.3938" stroke="black" stroke-width="0.8"/>
<path d="M24.6015 21.3802C24.0522 21.7572 23.4733 21.2658 22.8667 21.4397" stroke="black" stroke-width="0.8"/>
<path d="M21.9705 22.1347C22.7799 21.9026 22.1168 23.4066 22.03 23.8695" stroke="black" stroke-width="0.8"/>
<path d="M22.8086 21.2369C23.0407 22.0462 22.1445 22.7412 22.3187 23.3487" stroke="black" stroke-width="0.8"/>
<path d="M16.2356 42.6116L16.874 44.8379C17.0692 45.4613 17.3841 46.0406 17.801 46.5435C18.0331 47.3528 18.612 47.8443 18.8441 48.6537L19.1343 49.6659C19.2504 50.0706 19.5104 50.2155 19.8292 50.5621C20.5821 51.6601 20.6997 53.5977 21.1057 55.0137C21.4539 56.2278 21.5715 58.1654 22.3243 59.2634L22.5262 59.2055" stroke="black" stroke-width="0.8"/>
<path d="M16.4401 44.0864C16.6214 44.8438 16.9044 45.5731 17.2813 46.2546C17.6524 47.1671 17.9248 48.1168 18.0936 49.0874L18.3838 50.0996C18.4999 50.5043 18.7608 50.649 19.0788 50.9958C19.4115 51.7728 19.6454 52.5886 19.775 53.4239L20.4134 55.6502C20.5294 56.0549 20.9055 56.6045 20.7615 56.8643C20.8776 57.269 20.6747 57.3271 20.6471 57.9925C20.8605 58.7772 20.8711 59.6032 20.6779 60.393C20.6503 61.0584 20.3327 62.2439 20.7088 62.7935" stroke="black" stroke-width="0.8"/>
<path d="M16.9589 47.4413L17.1607 47.3835C17.9717 48.6843 18.0891 50.621 18.4954 52.0379C18.7275 52.8473 18.497 53.5708 18.7291 54.3802C18.8409 55.1758 18.8513 55.9825 18.7599 56.7807C18.7033 58.1108 18.9068 59.5859 18.3874 60.8292C18.0701 62.0156 17.5507 63.259 17.2344 64.4451C17.1248 64.6513 17.1143 64.8959 17.2058 65.1108L16.7725 65.8925C16.6857 66.3553 16.4552 67.0789 16.3694 67.5415C16.11 68.9298 15.8516 70.3178 15.5343 71.5042C15.3038 72.2277 15.7378 72.9792 15.5652 73.9046C15.4458 74.7012 15.4562 75.5119 15.596 76.3051C15.8014 77.5837 15.8824 78.8792 15.8376 80.1734C16.9659 80.2878 18.4686 79.419 19.4798 79.129C20.6436 78.8547 21.8582 78.8836 23.0076 79.2129C24.0456 79.2932 25.0676 79.5162 26.0449 79.8753C27.0284 80.2508 28.5614 80.2492 29.4 80.8846C29.6029 80.8265 29.545 80.6246 29.6887 80.3639C29.8534 79.9752 30.1502 79.6572 30.5267 79.4661C30.7907 79.2134 31.1219 79.0422 31.4807 78.9731C31.8854 78.857 31.7694 78.4523 32.3769 78.2781" stroke="black" stroke-width="0.8"/>
<path d="M29.8607 79.4366L29.9189 79.6394C29.7022 79.0254 29.3893 78.4497 28.9919 77.9338L28.7016 76.9216C28.5856 76.5169 28.0649 76.2283 27.9488 75.8236L27.3686 73.8002C27.2033 73.3823 26.946 73.007 26.6158 72.7021L23.9468 63.3942" stroke="black" stroke-width="0.8"/>
<path d="M28.6476 79.7844L28.4457 79.8423C28.2909 79.3466 28.0117 78.8988 27.6348 78.5414C27.2117 77.8779 26.8619 77.1703 26.5917 76.4312C25.7807 75.1304 25.7794 73.5984 25.3731 72.1815C25.1989 71.574 24.6203 71.0834 24.4461 70.4759L22.6478 64.2047" stroke="black" stroke-width="0.8"/>
<path d="M28.1416 65.0387C28.9214 65.7761 29.6025 66.6112 30.168 67.5234C30.5986 68.2244 31.0826 68.8911 31.6157 69.5176C31.9786 70.3838 32.4353 71.2077 32.9777 71.9744C33.3537 72.524 33.5277 73.1306 33.9047 73.6799C34.1036 74.2281 34.3978 74.7368 34.7736 75.1826C34.9725 75.7308 35.2666 76.2395 35.6424 76.6854L35.8731 77.4899C35.9313 77.6928 36.336 77.5767 36.2502 78.0393" stroke="black" stroke-width="0.8"/>
<path d="M36.2499 76.5111C35.7917 74.6614 35.1306 72.8679 34.2785 71.1634C33.7854 70.2093 33.0907 69.3141 32.5986 68.3598C32.1065 67.4055 31.209 66.5684 30.7159 65.6144" stroke="black" stroke-width="0.8"/>
<path d="M30.22 61.5954C30.5665 61.2766 31.4922 61.4501 31.9548 61.536C32.5855 61.5577 33.2094 61.674 33.8056 61.8812C34.4786 62.0839 35.1003 62.4285 35.6288 62.8918C36.3384 63.2664 37.085 63.5662 37.8567 63.7864C38.7967 64.1579 39.6384 64.7409 40.3167 65.4903C41.2144 66.3283 41.8805 67.8892 43.1247 68.4083" stroke="black" stroke-width="0.8"/>
<path d="M42.4852 66.1813C42.2531 65.3719 41.2116 64.7946 40.6327 64.3032C39.8144 63.4675 38.934 62.6951 37.9988 61.9927C37.728 61.6188 37.3415 61.3446 36.8992 61.2125L35.5109 60.9531C34.9902 60.6645 33.8906 59.8844 33.1393 60.3193" stroke="black" stroke-width="0.8"/>
<path d="M17.9707 72.3348C18 73.2023 17.3648 74.0419 17.1922 74.9674C16.9617 75.6909 16.6442 76.8764 17.0212 77.4257" stroke="black" stroke-width="0.8"/>
<path d="M16.3821 73.6663C16.5514 74.0676 16.6022 74.509 16.5284 74.9382C16.4997 75.6039 16.7897 76.6151 16.2413 76.9919" stroke="black" stroke-width="0.8"/>
<path d="M43.1196 65.343C43.3845 65.2891 43.6583 65.3763 43.8432 65.5734C46.5645 68.9543 47.3202 73.1173 48.8854 77.0481C52.2014 80.4886 54.6706 84.6541 56.0973 89.2146C56.4454 90.4287 57.7479 91.1506 58.096 92.3647C58.5602 93.9835 58.6196 95.7183 59.8353 96.9031C62.1916 100.044 64.1925 103.436 65.8013 107.017C66.9023 109.33 66.8473 112.193 67.9483 114.505C69.4841 117.568 69.7471 120.778 71.0801 123.899L74.8195 133.12C75.141 133.931 75.5803 134.691 76.1233 135.374C78.6704 138.147 80.3502 140.951 82.8973 143.724C85.0458 146.476 87.6494 148.84 90.5952 150.714C92.0995 151.378 93.6617 152.244 95.3686 152.849C96.7569 153.108 97.943 153.425 99.3313 153.684C102.457 153.994 105.608 153.972 108.729 153.617C112.892 152.861 117.053 150.573 121.39 150.425C122.214 150.636 123.057 150.761 123.907 150.798C127.609 151.559 131.14 152.997 134.32 155.039C137.359 157.234 138.952 160.5 139.937 163.936C140.053 164.34 139.504 164.718 139.013 165.296" stroke="black" stroke-width="0.8"/>
<path d="M17.1096 80.0271C17.0531 81.3573 16.5339 82.6016 16.4774 83.9317C17.001 87.2853 19.2884 89.9146 20.8233 92.9782C22.9061 97.829 24.6973 102.8 26.1873 107.864C26.893 109.15 27.6864 110.386 28.5618 111.563C29.5174 112.603 30.8189 113.325 31.4859 114.886C31.7762 115.898 31.7196 117.228 32.4143 118.123C34.2388 120.666 35.2529 123.441 36.7309 126.302C38.064 129.424 38.9344 132.46 40.0656 135.639C41.6015 138.702 44.0907 141.274 45.2209 144.453C45.8593 146.68 47.3935 148.21 48.7239 149.795C50.8663 152.684 53.0669 155.776 54.0531 159.216C54.3483 159.905 54.898 160.453 55.5876 160.747C56.3166 161.066 57.014 161.452 57.6706 161.902C64.8493 170.136 75.7803 171.6 85.8728 172.429L87.0869 172.081C88.5912 172.745 90.2099 172.281 91.8866 172.018C99.2887 171.867 106.775 172.786 113.513 169.54C118.913 166.914 124.485 164.657 130.191 162.787C130.669 162.732 131.153 162.822 131.579 163.046" stroke="black" stroke-width="0.8"/>
<path d="M130.594 162.674L130.537 162.472C131.241 162.114 132.033 161.962 132.821 162.036C133.283 162.122 133.486 162.063 133.804 162.411C134.122 162.759 134.383 162.903 134.788 162.787C134.846 162.988 135.107 163.133 135.367 163.278C135.686 163.625 135.599 164.087 135.715 164.492C135.889 165.1 135.918 165.967 136.642 166.198C137.944 166.92 138.433 164.808 138.606 163.883" stroke="black" stroke-width="0.8"/>
<path d="M43.0442 76.5333C42.5813 76.4465 42.7253 76.1867 42.2625 76.1C42.0015 75.9553 41.6549 76.2742 41.2503 76.3902C40.6427 76.5644 40.238 76.6805 40.0076 77.404C39.9217 77.8666 40.0378 78.2713 39.4884 78.6483C38.9391 79.0253 37.8115 78.9097 37.2621 79.2867C36.3081 79.7798 36.3962 80.8489 35.761 81.6885C35.4142 82.0064 35.3563 81.8045 35.2695 82.2674L35.559 83.2767C36.052 84.2308 36.1379 83.7682 36.9193 84.2005C37.9608 84.7778 38.2231 86.4545 38.5712 87.6686L39.0935 89.4902C39.3256 90.2995 39.8464 90.5882 40.0206 91.1957C40.1635 91.8194 40.4082 92.4152 40.7448 92.9594C41.1218 93.5088 41.6425 93.7974 42.0183 94.3461L43.1482 95.9935C43.5242 96.5431 44.3057 96.9755 44.5378 97.7848C44.9148 98.3342 44.8859 98.9989 45.4648 99.4904C45.8516 99.9493 46.2095 100.432 46.5365 100.935C47.3475 102.236 48.1582 103.536 48.911 104.634C49.6059 105.53 50.4455 106.165 51.1402 107.06C51.6276 108.378 52.0155 109.731 52.3006 111.107C52.4748 111.715 53.0534 112.205 53.2276 112.813L53.75 114.634C53.9452 115.258 54.2601 115.837 54.677 116.34L54.9659 117.347C55.0819 117.752 55.6027 118.041 55.7187 118.445C55.8499 119.073 56.0954 119.67 56.4429 120.209C56.717 120.783 56.8936 121.399 56.9652 122.031C57.1394 122.638 57.602 122.724 57.8341 123.533L58.8206 126.974C58.7382 127.551 58.7583 128.138 58.8801 128.708L59.4038 130.535C59.5198 130.94 59.7227 130.881 59.7808 131.084C60.2805 131.945 60.6884 132.855 60.9978 133.801C61.4843 134.93 62.0861 136.005 62.7937 137.009L64.0975 139.263C64.373 139.8 64.7351 140.288 65.1692 140.708C65.488 141.054 65.7481 141.199 66.0669 141.546C66.6273 142.143 67.2267 142.703 67.8612 143.221C68.498 143.914 70.6098 144.404 70.8998 145.416" stroke="black" stroke-width="0.8"/>
<path d="M43.044 76.5323C42.9279 76.1276 42.6377 75.1154 43.3034 75.144C43.5062 75.0858 44.2011 75.982 44.259 76.1839C44.5331 76.7578 44.7097 77.3734 44.7813 78.0055C44.8392 78.2073 45.1002 78.352 45.1584 78.5548C45.2744 78.9595 45.1876 79.4224 45.5065 79.7689C45.8835 80.3182 46.4043 80.6069 46.5782 81.2134C46.7521 81.82 47.0713 82.1675 47.2452 82.7741C47.8534 84.1331 48.665 85.4327 49.215 86.5889C49.4891 87.1628 49.6657 87.7785 49.7373 88.4105C49.9115 89.018 50.4902 89.5085 50.6644 90.116C50.7847 90.7685 51.1093 91.3657 51.5914 91.8216C51.9093 92.1684 52.4024 93.1224 52.7212 93.4689C53.8209 94.2491 54.6881 94.2188 55.2973 95.5776C55.7847 96.8957 56.1726 98.2484 56.4577 99.6245L56.98 101.446C57.1542 102.054 57.7328 102.544 57.907 103.152C58.2552 104.366 58.7193 105.984 59.9058 106.302C60.4041 106.399 60.8894 106.554 61.3519 106.763C61.8294 107.129 62.1419 107.669 62.2208 108.266C62.25 109.133 61.7595 109.712 61.7309 110.378C61.7724 111.155 61.9189 111.924 62.1665 112.662L63.9071 118.732C64.179 119.545 64.5487 120.321 65.0081 121.044L66.6894 126.908C67.1899 127.537 67.6086 128.226 67.9353 128.96C68.0459 129.728 68.2607 130.477 68.5737 131.187C68.7559 131.52 68.9906 131.823 69.2687 132.083C69.5875 132.429 69.7036 132.834 70.0215 133.181C70.6306 134.539 72.7994 135.231 73.4082 136.589L73.6984 137.601C73.8145 138.006 74.0755 138.151 74.1915 138.556C74.5239 139.333 74.7578 140.148 74.8878 140.984C75.1199 141.793 76.4223 142.515 76.2497 143.44C76.2211 144.106 74.747 144.309 74.2844 144.223C75.1519 144.194 75.1822 145.061 75.3561 145.668" stroke="black" stroke-width="0.8"/>
<path d="M70.6368 145.267C71.649 144.977 72.0537 144.861 72.5459 145.815C72.8652 146.623 72.9657 147.501 72.8374 148.36C72.9674 149.195 73.2013 150.01 73.5337 150.788C73.581 151.154 73.7552 151.491 74.0258 151.742C74.5465 152.031 74.6915 151.771 75.038 151.452" stroke="black" stroke-width="0.8"/>
<path d="M75.1492 147.258C75.4973 148.472 75.5848 149.542 77.0017 149.136C78.0139 148.846 79.1977 147.63 80.3841 147.947C81.7724 148.207 81.63 150 81.6593 150.867C81.7753 151.272 81.6307 151.533 81.7467 151.937L82.0369 152.95C82.2112 153.557 81.7197 154.136 82.2983 154.627C82.6448 154.308 83.1363 153.729 83.4831 153.411C83.9318 153.166 84.3662 152.895 84.784 152.6C85.7387 153.64 84.0922 154.77 84.845 155.868C85.1916 155.549 85.7991 155.375 86.1459 155.057C86.6953 154.68 86.9839 154.159 87.2742 155.171C87.4484 155.779 86.7277 158.613 87.4513 158.844C87.7123 158.988 88.2028 158.41 88.6075 158.294C89.0122 158.178 89.9662 157.684 90.2841 158.031C90.6602 158.581 90.1697 159.16 91.1809 158.87C91.3837 158.811 91.5275 158.551 91.6724 158.291L92.6846 158C93.2356 159.156 93.7563 159.445 95.1722 159.039C96.4229 158.571 97.7086 158.202 99.0173 157.936C99.6238 157.762 99.682 157.965 100.204 158.254C100.695 158.457 101.246 158.456 101.737 158.252C103.554 158.023 105.339 157.584 107.056 156.946" stroke="black" stroke-width="0.8"/>
<path d="M76.2238 151.767L76.021 151.825C76.0041 152.396 76.0927 152.964 76.2823 153.502C76.3636 153.944 76.3443 154.399 76.2258 154.832C76.8674 154.539 77.5495 154.343 78.2492 154.252C78.6539 154.136 78.596 153.934 78.9149 154.281L79.2051 155.293C79.3793 155.9 78.8879 156.479 79.0618 157.086C79.1529 157.786 79.3485 158.468 79.642 159.109C80.2788 159.803 80.5963 158.617 81.3768 159.05C81.6378 159.195 81.7831 160.467 81.8991 160.871C82.1312 161.681 82.0454 162.143 82.8548 161.911C83.7223 161.882 84.4154 161.244 85.2248 161.012C85.6018 161.562 85.515 162.024 85.8918 162.573C86.2107 162.919 86.0078 162.978 86.4707 163.064C86.7317 163.209 87.4829 162.774 87.8876 162.658C88.597 162.345 89.3461 162.13 90.1139 162.02C90.5767 162.106 90.4909 162.569 90.9535 162.655C91.416 162.741 91.9657 162.365 92.1675 162.307C92.9352 162.196 93.6842 161.981 94.3938 161.668C94.9616 161.227 95.6431 160.955 96.3591 160.885C96.8834 160.994 97.4154 161.061 97.9502 161.087L100.176 160.448C100.379 160.39 100.523 160.129 100.726 160.071L103.963 159.143C104.583 158.88 105.143 158.496 105.611 158.013C106.32 157.699 107.069 157.485 107.837 157.375C108.407 157.253 108.995 157.233 109.572 157.315C110.281 157.002 111.03 156.787 111.798 156.677C112.203 156.561 112.464 156.704 112.926 156.791L114.14 156.443C114.805 156.472 115.615 156.24 115.99 156.789" stroke="black" stroke-width="0.8"/>
<path d="M120.265 156.439C120.813 156.189 121.437 156.168 122 156.379C122.724 156.61 123.851 156.724 124.343 156.145C125.181 155.248 123.909 155.394 123.503 155.51L121.277 156.149" stroke="black" stroke-width="0.8"/>
<path d="M24.0403 100.377C25.3125 100.232 26.6729 101.156 27.6562 101.53C28.9316 101.879 30.2405 102.091 31.5607 102.162C32.8015 102.272 34.0491 102.281 35.2913 102.188C36.6293 102.07 37.9546 101.837 39.2524 101.49" stroke="black" stroke-width="0.8"/>
<path d="M25.1426 104.221C26.5595 103.815 27.9173 103.206 29.3637 103.668C29.6247 103.813 29.8844 103.957 30.0873 103.899C30.445 103.973 30.8166 103.942 31.1573 103.81C31.3592 103.752 31.6202 103.897 31.8809 104.041L33.095 103.693C33.2968 103.635 33.5576 103.779 33.7594 103.721L34.7716 103.43C35.4197 103.494 36.0737 103.454 36.7093 103.313L40.7562 102.152" stroke="black" stroke-width="0.8"/>
<path d="M32.9185 101.554L37.3701 100.277" stroke="black" stroke-width="0.8"/>
<path d="M58.5599 93.9825C59.169 95.3412 57.6653 96.2104 57.0299 97.049" stroke="black" stroke-width="0.8"/>
<path d="M59.602 96.093C60.153 97.2489 58.2748 99.1014 57.5815 99.7382" stroke="black" stroke-width="0.8"/>
<path d="M51.3487 83.3493C51.5515 83.2911 51.6094 83.493 51.3487 83.3493C51.6029 83.651 51.638 84.0807 51.4361 84.4197C51.1475 84.9404 50.54 85.1146 50.7142 85.7221" stroke="black" stroke-width="0.8"/>
<path d="M51.3487 83.3493C52.5643 84.5341 52.7964 85.3435 51.9305 86.9057" stroke="black" stroke-width="0.8"/>
<path d="M39.9916 120.111C40.6573 120.139 41.3799 120.37 42.0453 120.398C42.9125 120.368 43.8379 120.54 44.7055 120.511L46.9318 119.873C47.5393 119.698 49.0134 119.495 49.2439 118.772" stroke="black" stroke-width="0.8"/>
<path d="M47.6793 116.374C46.8699 116.606 46.4366 117.388 45.6273 117.62L44.4132 117.968C43.865 118.167 43.3563 118.461 42.9105 118.837C41.8111 119.114 40.6885 119.29 39.5569 119.361C38.6412 119.433 37.7379 119.618 36.8678 119.912" stroke="black" stroke-width="0.8"/>
<path d="M43.4047 121.322L41.1784 121.96C40.369 122.192 39.8775 122.771 39.0682 123.003" stroke="black" stroke-width="0.8"/>
<path d="M46.123 121.638L42.6826 122.624" stroke="black" stroke-width="0.8"/>
<path d="M42.4139 113.285L42.472 113.488C41.8645 113.662 41.7787 114.124 41.1712 114.299L38.9459 114.937" stroke="black" stroke-width="0.8"/>
<path d="M67.5726 115.487C66.4167 116.038 66.562 117.311 65.0879 117.514" stroke="black" stroke-width="0.8"/>
<path d="M67.9207 116.701C67.777 116.962 67.632 117.222 67.4292 117.28C67.0827 117.599 66.794 118.12 66.4472 118.438C66.1004 118.756 65.812 119.277 65.4073 119.393" stroke="black" stroke-width="0.8"/>
<path d="M66.4495 119.969C66.0162 120.751 65.5257 121.33 65.0921 122.111" stroke="black" stroke-width="0.8"/>
<path d="M55.7182 146.698C56.7885 146.61 57.9158 146.725 58.7831 146.695C60.1592 146.41 61.5119 146.022 62.83 145.535C64.6516 145.012 66.7332 144.635 67.9168 143.418" stroke="black" stroke-width="0.8"/>
<path d="M65.9795 143.537C65.372 143.711 65.2283 143.972 64.8236 144.088C64.477 144.407 64.0142 144.32 63.6676 144.639L63.7255 144.841" stroke="black" stroke-width="0.8"/>
<path d="M64.3604 144L61.9323 144.697" stroke="black" stroke-width="0.8"/>
<path d="M72.1931 140.003C72.5978 139.887 72.7415 139.627 73.1472 139.51C73.6956 139.134 74.1594 139.22 74.7078 138.843C75.2562 138.467 75.5737 137.281 76.1231 136.904" stroke="black" stroke-width="0.8"/>
<path d="M76.0669 138.235C76.1418 138.568 75.9554 138.904 75.6335 139.017C75.1443 139.523 74.7177 140.087 74.3629 140.695" stroke="black" stroke-width="0.8"/>
<path d="M45.0843 94.3429C44.9396 94.6039 44.7956 94.8636 45.0556 95.0086C45.9042 94.8345 46.6977 94.4567 47.3677 93.9076C48.2639 93.2127 49.6217 92.6038 50.199 91.5624" stroke="black" stroke-width="0.8"/>
<path d="M55.245 106.102C55.6799 106.853 54.7837 107.548 53.9744 107.78" stroke="black" stroke-width="0.8"/>
<path d="M75.9228 169.811C77.2989 169.526 78.6516 169.138 79.9697 168.651C81.2705 167.84 81.9337 166.336 82.7138 165.236C83.3841 164.504 83.7367 163.537 83.6942 162.546" stroke="black" stroke-width="0.8"/>
<path d="M78.3827 171.515C78.6714 170.994 79.0179 170.675 79.3066 170.155C80.3464 169.199 81.4445 168.446 82.4846 167.492C82.7733 166.971 85.114 165.204 84.7372 164.656" stroke="black" stroke-width="0.8"/>
<path d="M78.4699 172.584C79.3374 172.555 80.666 171.079 81.1574 170.5C82.034 169.721 82.8101 168.837 83.4679 167.866C83.7566 167.345 84.8546 166.592 84.6225 165.783" stroke="black" stroke-width="0.8"/>
<path d="M74.4765 169.35C74.7652 168.829 75.1699 168.713 75.5164 168.394C76.0515 167.854 76.5441 167.274 76.9899 166.658C77.5764 165.831 78.2336 165.056 78.9538 164.343C78.1158 165.241 77.2206 165.935 76.3823 166.832C75.5059 167.971 74.2757 168.786 72.8854 169.149" stroke="black" stroke-width="0.8"/>
<path d="M75.2512 163.653C75.1645 164.115 74.0664 164.868 73.7199 165.187C73.1524 165.77 72.4463 166.198 71.6678 166.433" stroke="black" stroke-width="0.8"/>
<path d="M99.6945 173.286C100.909 172.938 101.776 172.909 102.816 171.953C103.628 171.264 104.279 170.404 104.722 169.435C105.551 168.186 106.192 166.822 106.627 165.387C107.291 163.882 108.012 162.58 107.346 161.019" stroke="black" stroke-width="0.8"/>
<path d="M105.034 162.12C105.468 162.871 105.179 163.392 104.948 164.116C104.82 165.245 104.549 166.353 104.142 167.413C103.526 168.387 102.841 169.316 102.091 170.191C101.27 170.773 100.506 171.432 99.8092 172.159" stroke="black" stroke-width="0.8"/>
<path d="M100.967 173.142C100.558 172.872 100.058 172.779 99.5788 172.883C98.8494 172.861 98.1316 172.694 97.467 172.393C96.8097 172.265 96.137 172.236 95.4712 172.308C94.8637 172.482 94.5457 172.135 93.9382 172.309C95.1784 171.958 96.4673 171.811 97.7547 171.872C98.2895 171.898 98.8215 171.965 99.3458 172.073C99.9161 172.09 100.485 172.002 101.023 171.812C101.561 171.622 102.129 171.533 102.699 171.55C103.331 171.478 103.947 171.302 104.521 171.028L106.544 170.447C107.354 170.215 108.047 169.578 108.856 169.346" stroke="black" stroke-width="0.8"/>
<path d="M99.1682 166.869C99.6324 168.488 97.2335 170.051 97.0332 171.642" stroke="black" stroke-width="0.8"/>
<path d="M95.6131 168.983C95.2052 170.194 94.4402 171.253 93.4186 172.021" stroke="black" stroke-width="0.8"/>
<path d="M112.747 154.653C113.157 155.701 113.468 156.784 113.675 157.89C113.705 158.758 113.359 160.609 112.55 160.841" stroke="black" stroke-width="0.8"/>
<path d="M114.54 154.796C115.436 154.101 115.438 155.634 115.612 156.241C115.969 157.492 115.888 158.828 115.383 160.027" stroke="black" stroke-width="0.8"/>
<path d="M117.979 153.81L118.182 153.752C118.675 154.706 119.14 156.325 118.561 157.366" stroke="black" stroke-width="0.8"/>
<path d="M121.421 154.355L122.233 157.188" stroke="black" stroke-width="0.8"/>
<path d="M32.8398 79.8962L25.9601 81.8689" stroke="black" stroke-width="0.8"/>
<path d="M34.6328 80.0396C34.3442 80.5603 33.332 80.8506 32.9854 81.1694C32.2622 81.6288 31.4858 81.9985 30.6733 82.2704L26.0199 83.6047" stroke="black" stroke-width="0.8"/>
<path d="M34.6923 81.7744C34.8967 83.2492 31.1375 83.8892 30.1262 84.1791C28.9122 84.5273 27.7562 85.0782 26.5117 84.5581C25.4204 84.1373 24.2988 83.7999 23.1565 83.5488" stroke="black" stroke-width="0.8"/>
<path d="M35.7933 84.0865C32.3529 85.073 28.9714 86.2611 25.3279 85.7735" stroke="black" stroke-width="0.8"/>
<path d="M36.6345 86.2546L36.6926 86.4574C35.5845 87.1035 34.3325 87.4625 33.0504 87.5018C31.7782 87.6471 30.3034 87.8515 29.0312 87.9968" stroke="black" stroke-width="0.8"/>
<path d="M35.9122 87.5561C35.7396 88.4815 33.6001 88.657 32.9926 88.8312L30.7663 89.4696C30.1942 89.3472 29.5971 89.4403 29.0894 89.731" stroke="black" stroke-width="0.8"/>
<path d="M36.955 89.6654C36.5217 90.4471 35.0476 90.6503 34.2383 90.8824C33.0242 91.2305 31.8378 90.9133 30.6237 91.2614" stroke="black" stroke-width="0.8"/>
<path d="M37.4773 91.4869C37.5657 92.557 35.2234 92.7907 34.6159 92.9649C33.199 93.3712 31.3481 93.026 29.874 93.2292" stroke="black" stroke-width="0.8"/>
<path d="M38.5491 92.9315C38.7526 94.4066 31.7854 95.309 30.7732 95.5992" stroke="black" stroke-width="0.8"/>
<path d="M40.4015 94.8097C40.4889 95.8801 37.54 96.2877 36.7307 96.5198L29.8509 98.4925" stroke="black" stroke-width="0.8"/>
<path d="M41.3272 96.5146C41.8782 97.6705 39.8261 98.9164 39.1328 99.5532C37.3996 101.146 34.3057 101.813 31.9644 102.047" stroke="black" stroke-width="0.8"/>
<path d="M43.2389 98.5953C43.4417 98.5371 43.6436 98.4792 43.7018 98.682C42.7198 99.8396 40.4935 100.478 39.1357 101.087C36.7657 101.986 34.0766 102.537 31.6485 103.234" stroke="black" stroke-width="0.8"/>
<path d="M44.0457 99.8962C44.5957 101.052 40.7808 103.022 40.0296 103.457C37.267 104.906 34.2372 105.775 31.1264 106.01" stroke="black" stroke-width="0.8"/>
<path d="M45.786 101.369C46.1621 101.918 45.3248 102.815 44.9782 103.134C44.0434 103.966 42.9795 104.641 41.8281 105.132C40.3254 106.001 38.6485 106.263 36.885 106.988L34.2541 107.742C33.2473 107.708 32.2397 107.776 31.247 107.947" stroke="black" stroke-width="0.8"/>
<path d="M45.6426 103.162L45.8454 103.103C46.5404 104 42.3209 106.085 41.7134 106.26L33.389 109.304" stroke="black" stroke-width="0.8"/>
<path d="M48.0458 106.195C48.6539 107.554 44.1165 109.293 43.365 109.727C42.141 110.266 40.8743 110.702 39.5781 111.032C38.1612 111.438 36.8034 112.047 35.4152 111.788" stroke="black" stroke-width="0.8"/>
<path d="M49.0888 108.305C49.4659 108.854 49.0612 108.97 48.7134 109.288C47.878 109.851 46.9872 110.327 46.0548 110.708C44.2211 111.788 42.2326 112.58 40.1586 113.056" stroke="black" stroke-width="0.8"/>
<path d="M49.8446 112.468C49.9321 113.538 46.6945 114.467 45.8851 114.699C45.0758 114.931 42.9363 115.106 42.5027 115.887" stroke="black" stroke-width="0.8"/>
<path d="M50.7134 113.971C50.9455 114.78 48.1708 115.795 47.6212 116.171C46.0765 116.86 44.4938 117.46 42.8809 117.968" stroke="black" stroke-width="0.8"/>
<path d="M50.0786 116.342C48.3091 117.221 46.4479 117.902 44.529 118.372" stroke="black" stroke-width="0.8"/>
<path d="M50.9183 116.978C50.8617 118.308 46.0334 119.036 44.8193 119.384" stroke="black" stroke-width="0.8"/>
<path d="M51.6434 118.741C50.9909 119.35 50.2506 119.858 49.4473 120.247L47.1934 121.551" stroke="black" stroke-width="0.8"/>
<path d="M52.1654 120.562C52.3107 121.834 49.6505 121.721 49.276 122.704" stroke="black" stroke-width="0.8"/>
<path d="M54.3066 121.919C54.1038 121.977 53.96 122.238 53.8151 122.498C53.3973 122.793 52.963 123.064 52.5142 123.309C51.8644 123.512 51.2905 123.906 50.8669 124.439" stroke="black" stroke-width="0.8"/>
<path d="M55.782 123.248C56.333 124.404 52.2272 125.363 52.3735 126.635" stroke="black" stroke-width="0.8"/>
<path d="M57.6351 125.125C57.6643 125.992 55.9019 126.717 55.1504 127.151C53.9077 128.165 52.4917 128.571 51.2488 129.584" stroke="black" stroke-width="0.8"/>
<path d="M58.4477 127.959C58.9407 128.913 56.0211 130.188 55.4136 130.362C54.464 130.995 53.4058 131.447 52.2921 131.695" stroke="black" stroke-width="0.8"/>
<path d="M59.1439 130.387C59.1153 131.052 57.9591 131.602 57.3526 131.776C56.5605 132.256 55.7168 132.645 54.8376 132.935" stroke="black" stroke-width="0.8"/>
<path d="M57.7866 132.528L57.8447 132.731C57.2951 133.107 55.2716 133.687 55.3021 134.555" stroke="black" stroke-width="0.8"/>
<path d="M60.0405 134.29C60.0708 135.157 58.1331 135.275 58.6831 136.431" stroke="black" stroke-width="0.8"/>
<path d="M60.0434 134.289C60.3271 134.523 60.5008 134.865 60.5231 135.232C60.5454 135.6 60.4143 135.96 60.1611 136.227" stroke="black" stroke-width="0.8"/>
<path d="M83.595 149.216C83.74 148.956 83.5658 148.348 83.9123 148.029C84.4912 148.521 84.2318 149.909 84.262 150.776C84.4073 152.048 84.091 153.235 84.4392 154.449" stroke="black" stroke-width="0.8"/>
<path d="M85.9364 148.982C86.2094 149.96 86.2791 150.983 86.1412 151.989C86.0267 153.117 86.2299 154.591 85.4507 155.691" stroke="black" stroke-width="0.8"/>
<path d="M87.1218 149.3C88.1922 149.212 87.5889 153.983 86.9537 154.823" stroke="black" stroke-width="0.8"/>
<path d="M90.4784 151.841C90.9133 152.592 89.7867 154.011 89.5559 154.733C89.1226 155.515 88.9802 157.308 88.1708 157.54" stroke="black" stroke-width="0.8"/>
<path d="M91.8968 152.968C92.3318 153.719 91.6098 155.021 91.1183 155.6C90.8297 156.121 90.2238 157.828 89.4144 158.06" stroke="black" stroke-width="0.8"/>
<path d="M94.1524 153.197L94.3552 153.139C94.7892 153.89 93.1155 157.217 92.3061 157.449" stroke="black" stroke-width="0.8"/>
<path d="M96.3498 153.223C97.2187 154.726 94.56 156.146 94.5035 157.476" stroke="black" stroke-width="0.8"/>
<path d="M97.3054 154.263C97.4796 154.87 96.8442 155.709 96.5555 156.23C96.2849 156.872 95.9461 157.483 95.5449 158.053" stroke="black" stroke-width="0.8"/>
<path d="M98.7516 154.724L98.9544 154.666C99.3893 155.417 97.7712 157.415 97.4826 157.935C99.1592 157.673 99.2723 155.013 100.689 154.607C101.124 155.358 99.8526 157.036 99.4781 158.02C99.9688 157.362 100.531 156.76 101.153 156.225C101.5 155.906 102.366 154.344 103.148 154.778C103.871 155.008 102.167 157.468 102.08 157.931C102.64 157.249 103.269 156.628 103.959 156.078C104.652 155.442 105.432 154.342 106.357 154.515C106.271 154.977 105.982 155.498 105.896 155.961C105.608 156.482 105 156.656 104.972 157.321C107.054 156.943 107.486 154.629 109.19 153.702C109.885 154.599 108.845 155.553 108.874 156.421C109.345 155.702 109.887 155.033 110.492 154.424C110.838 154.106 111.762 152.745 112.428 152.773C113.556 152.887 112.458 155.174 111.968 155.752C112.575 155.578 113.008 154.796 113.499 154.218C113.846 153.9 115.059 152.019 115.579 152.307C116.303 152.538 115.523 153.637 115.436 154.1C115.205 154.824 115.438 155.633 114.628 155.865C115.408 154.766 116.621 152.885 117.979 152.277C118.414 153.028 118.327 153.491 117.951 154.474C117.887 154.822 117.76 155.156 117.576 155.458C117.431 155.719 117.027 155.835 116.941 156.298C117.144 156.239 117.346 156.181 117.432 155.719L118.906 153.982C119.427 153.267 120.062 152.641 120.784 152.13C121.537 153.228 120.729 154.993 119.891 155.89C119.572 155.543 121.161 154.211 121.45 153.691C121.797 153.373 122.316 152.128 123.04 152.359C124.081 152.936 122.407 156.263 121.858 156.64C121.972 155.511 123.763 154.122 124.399 153.283C124.808 152.528 125.592 152.052 126.451 152.038C126.828 152.587 125.701 154.005 125.557 154.266C125.268 154.787 124.691 155.828 124.807 156.233C125.298 155.654 125.731 154.873 126.222 154.294C126.511 153.773 127.637 152.354 128.302 152.383C128.66 153.088 128.811 153.88 128.738 154.668C128.623 155.796 127.669 156.288 128.22 157.444C128.191 156.577 128.884 155.94 129.316 155.158C129.749 154.377 130.153 152.729 131.28 152.843C132.033 153.941 131.716 155.128 131.659 156.458C132.729 156.369 132.872 154.577 133.739 154.547C134.174 155.299 134.059 156.427 134.552 157.38C134.986 158.132 134.668 157.785 135.333 157.814C135.999 157.842 135.94 157.64 136.317 158.189C137.012 159.085 137.505 160.038 138.2 160.934C138.517 161.281 140.661 164.17 139.128 164.172" stroke="black" stroke-width="0.8"/>
<path d="M20.8761 57.2673C20.7019 56.6598 21.4257 56.8912 21.5417 57.2959C21.3971 57.5569 21.455 57.7588 21.3112 58.0195C21.275 58.52 21.3443 59.0225 21.5147 59.4945C21.5004 60.5041 21.3457 61.5067 21.0551 62.4736C21.0264 63.1393 20.9117 64.2666 20.3633 64.6434" stroke="black" stroke-width="0.8"/>
<path d="M21.6841 55.5032L22.6125 58.7407C22.6345 59.4495 22.7617 60.151 22.9899 60.8223C23.1059 61.227 23.0773 61.8927 22.6726 62.0088" stroke="black" stroke-width="0.8"/>
<path d="M21.7413 54.1719L23.192 59.231C23.4662 59.8049 23.6427 60.4206 23.7144 61.0526L23.5115 61.1107" stroke="black" stroke-width="0.8"/>
<path d="M22.29 53.7961L22.4929 53.7379C22.8835 54.7183 23.1751 55.7352 23.3633 56.7736C23.7696 58.1905 24.5803 59.4904 25.0445 61.1091" stroke="black" stroke-width="0.8"/>
<path d="M23.6781 54.0545C24.1777 54.915 24.5856 55.8256 24.8951 56.7713L26.2297 61.4257" stroke="black" stroke-width="0.8"/>
<path d="M29.7037 65.9047C30.9223 70.1544 33.7015 73.7371 34.9198 77.9859" stroke="black" stroke-width="0.8"/>
<path d="M29.3849 65.5581C29.7668 67.272 30.2512 68.9614 30.8355 70.6172C31.6176 72.5828 32.6035 74.4899 33.1837 76.5134L33.0095 75.9059" stroke="black" stroke-width="0.8"/>
<path d="M29.6183 67.8995L31.7071 75.1839" stroke="black" stroke-width="0.8"/>
<path d="M29.5341 69.895C29.8244 70.9072 30.9253 73.2193 30.2899 74.0579" stroke="black" stroke-width="0.8"/>
<path d="M23.6046 68.31C24.1848 70.3335 24.2443 72.0683 24.8245 74.0917C25.1147 75.104 25.5516 78.9204 27.2874 78.8606" stroke="black" stroke-width="0.8"/>
<path d="M21.7244 67.0972L25.3217 79.6427" stroke="black" stroke-width="0.8"/>
<path d="M21.6694 69.9603C21.7854 70.365 21.6987 70.8279 21.8147 71.2326C22.0029 72.2709 22.2945 73.2879 22.6852 74.2682C22.8012 74.6729 23.9603 77.1878 23.2088 77.6218" stroke="black" stroke-width="0.8"/>
<path d="M21.0356 72.3319C21.0775 73.1095 21.2243 73.8779 21.4721 74.6161C21.7042 75.4255 21.4737 76.149 21.7058 76.9584" stroke="black" stroke-width="0.8"/>
<path d="M35.3997 65.1473C36.0651 65.1749 37.6568 66.9094 38.0336 67.4578C38.9416 68.7431 39.5822 70.1976 39.9175 71.7352" stroke="black" stroke-width="0.8"/>
<path d="M37.5103 65.6365C38.1184 66.9955 39.3348 68.1791 40.0008 69.7399" stroke="black" stroke-width="0.8"/>
<path d="M38.4646 65.1443C38.9275 65.2311 39.4202 66.1842 39.5363 66.5889C40.1967 67.1986 40.7113 67.9492 41.0419 68.785" stroke="black" stroke-width="0.8"/>
<path d="M39.8527 65.4028C40.372 66.4962 41.0997 67.4777 41.9951 68.2922" stroke="black" stroke-width="0.8"/>
<path d="M40.3125 62.4247C41.18 62.3954 41.9049 64.1579 42.137 64.9673" stroke="black" stroke-width="0.8"/>
<path d="M24.3708 22.1028C24.545 22.7103 24.6331 23.7795 25.0959 23.8662C25.356 24.0112 25.6453 23.4892 26.1081 23.576C26.3691 23.7207 26.3984 24.5882 26.4563 24.7901" stroke="black" stroke-width="0.8"/>
<path d="M25.0657 22.999C24.3084 23.1804 23.5791 23.4633 22.8976 23.8402C22.1464 24.2751 22.0317 25.4024 20.9616 25.4908" stroke="black" stroke-width="0.8"/>
<path d="M25.3557 24.0102C24.7768 23.5187 23.8228 24.0118 23.4181 24.1279C22.6087 24.36 22.6669 24.5628 21.9735 25.1996C21.6849 25.7203 21.0774 25.8945 20.5868 26.4731C20.24 26.791 19.9517 27.3127 19.547 27.4288" stroke="black" stroke-width="0.8"/>
<path d="M25.6157 24.1552C23.9969 24.6194 22.3782 25.0835 21.2515 26.502C20.2276 27.6323 19.5645 29.0424 19.347 30.5519" stroke="black" stroke-width="0.8"/>
<path d="M21.7427 25.9222C20.4705 26.0675 19.5181 28.0935 19.3455 29.0189C19.1618 29.9815 19.0754 30.9602 19.0877 31.9401C19.1088 32.6987 19.0318 33.4568 18.8585 34.1957" stroke="black" stroke-width="0.8"/>
<path d="M20.7028 26.8778C20.6161 27.3406 20.4724 27.6013 20.3856 28.0642C20.1445 28.9106 19.9523 29.7701 19.8099 30.6386C19.7231 31.1014 19.8391 31.5061 19.7533 31.9687C19.7011 32.3766 19.5944 32.7756 19.436 33.1551C19.3493 33.618 20.0452 34.5139 19.4376 34.6881" stroke="black" stroke-width="0.8"/>
<path d="M19.6048 27.6306C19.2582 27.9495 19.1715 28.4124 18.8828 28.9331C18.5152 29.6053 18.2804 30.3419 18.1911 31.1028C17.718 32.8539 17.5729 34.6773 17.763 36.4812" stroke="black" stroke-width="0.8"/>
<path d="M17.6711 30.8129C18.1051 31.5644 17.8746 32.288 17.702 33.2134C17.4426 34.6017 17.3281 35.7299 17.0697 37.1179" stroke="black" stroke-width="0.8"/>
<path d="M19.6789 44.69L20.8393 48.737C21.1998 49.0099 21.4052 49.4409 21.3902 49.8929" stroke="black" stroke-width="0.8"/>
<path d="M18.1748 44.0269L20.1476 50.9067" stroke="black" stroke-width="0.8"/>
<path d="M19.0076 68.3142C19.0373 68.8524 18.9691 69.3915 18.8064 69.9053C18.3614 70.8201 18.0507 71.7942 17.8839 72.7977C17.6526 74.3591 17.5189 75.9335 17.4837 77.5116L17.2818 77.5695" stroke="black" stroke-width="0.8"/>
<path d="M17.4747 68.3159C17.6489 68.9234 17.1575 69.5023 16.8688 70.023C16.5387 70.8443 16.3443 71.7138 16.2931 72.5974C16.0626 73.321 16.2947 74.1304 16.1221 75.0558C16.0826 75.5261 15.9957 75.9912 15.8627 76.4441" stroke="black" stroke-width="0.8"/>
<path d="M15.801 71.6431C15.4827 72.5822 15.3943 73.584 15.5432 74.5643C15.5662 75.7778 15.693 76.987 15.9222 78.1789" stroke="black" stroke-width="0.8"/>
<path d="M18.377 73.7517C18.493 74.1564 18.1465 74.4753 18.0597 74.9382C17.9729 75.401 18.0032 76.2683 17.9164 76.7311C18.048 77.5921 18.0777 78.4655 18.0051 79.3335" stroke="black" stroke-width="0.8"/>
<path d="M19.5656 72.5349C20.2898 74.2987 18.9912 76.6413 19.8601 78.1441" stroke="black" stroke-width="0.8"/>
<path d="M20.4017 74.7035C20.7498 75.9176 20.4326 77.104 20.7807 78.318" stroke="black" stroke-width="0.8"/>
<path d="M17.8914 80.4605C18.2684 81.0098 17.893 81.9934 17.8072 82.456C17.8008 83.3127 17.8987 84.1671 18.0987 85.0002" stroke="black" stroke-width="0.8"/>
<path d="M19.7406 79.2727C20.1745 80.0242 19.3954 81.1236 19.3667 81.7893C19.2859 83.0069 19.414 84.2294 19.7457 85.4038" stroke="black" stroke-width="0.8"/>
<path d="M20.7251 79.6479C21.1893 81.2666 20.5252 82.7709 20.9894 84.3897" stroke="black" stroke-width="0.8"/>
<path d="M22.6338 80.1949C23.1259 81.1493 22.6065 82.3926 22.9547 83.6067" stroke="black" stroke-width="0.8"/>
<path d="M23.8772 80.7144C24.6865 80.4823 23.9646 81.7847 24.3413 82.3331" stroke="black" stroke-width="0.8"/>
</g>
</g>
</svg>
